<?xml version="1.0" encoding="UTF-8" standalone="no"?>
<!-- Created with Inkscape (http://www.inkscape.org/) -->

<svg
   xmlns:dc="http://purl.org/dc/elements/1.1/"
   xmlns:cc="http://creativecommons.org/ns#"
   xmlns:rdf="http://www.w3.org/1999/02/22-rdf-syntax-ns#"
   xmlns:svg="http://www.w3.org/2000/svg"
   xmlns="http://www.w3.org/2000/svg"
   xmlns:sodipodi="http://sodipodi.sourceforge.net/DTD/sodipodi-0.dtd"
   xmlns:inkscape="http://www.inkscape.org/namespaces/inkscape"
   version="1.1"
   id="svg2"
   xml:space="preserve"
   width="1094.6667"
   height="200"
   viewBox="0 0 1094.6667 200"
   sodipodi:docname="UE_brand_doxy.svg"
   inkscape:version="0.92.2 5c3e80d, 2017-08-06"><metadata
     id="metadata8"><rdf:RDF><cc:Work
         rdf:about=""><dc:format>image/svg+xml</dc:format><dc:type
           rdf:resource="http://purl.org/dc/dcmitype/StillImage" /><dc:title></dc:title></cc:Work></rdf:RDF></metadata><defs
     id="defs6"><clipPath
       clipPathUnits="userSpaceOnUse"
       id="clipPath18"><path
         d="M 0,150 H 821 V 0 H 0 Z"
         id="path16"
         inkscape:connector-curvature="0" /></clipPath><clipPath
       clipPathUnits="userSpaceOnUse"
       id="clipPath58"><path
         d="M 8,143.388 H 145.721 V 5.8457 L 8,5.8457 Z"
         id="path56"
         inkscape:connector-curvature="0" /></clipPath></defs><sodipodi:namedview
     pagecolor="#ffffff"
     bordercolor="#666666"
     borderopacity="1"
     objecttolerance="10"
     gridtolerance="10"
     guidetolerance="10"
     inkscape:pageopacity="0"
     inkscape:pageshadow="2"
     inkscape:window-width="1366"
     inkscape:window-height="671"
     id="namedview4"
     showgrid="false"
     inkscape:zoom="0.30328865"
     inkscape:cx="547.33337"
     inkscape:cy="100"
     inkscape:window-x="0"
     inkscape:window-y="27"
     inkscape:window-maximized="1"
     inkscape:current-layer="g10" /><g
     id="g10"
     inkscape:groupmode="layer"
     inkscape:label="UE_logo"
     transform="matrix(1.3333333,0,0,-1.3333333,0,200)"><g
       id="g12"><g
         id="g14"
         clip-path="url(#clipPath18)"><g
           id="g20"
           transform="translate(321.3701,52.9736)"><path
             d="m 0,0 c 0.591,1.013 0.359,1.854 0.359,2.65 0.015,27.421 0.032,54.842 -0.029,82.264 -0.004,1.903 0.296,2.625 2.434,2.546 5.173,-0.187 10.359,-0.148 15.535,-0.013 1.841,0.048 2.235,-0.518 2.232,-2.274 -0.05,-36.866 -0.038,-73.733 -0.038,-110.6 0,-6.169 -0.044,-12.34 0.033,-18.509 0.018,-1.403 -0.353,-1.796 -1.772,-1.776 -5.94,0.082 -11.883,0.108 -17.822,-0.011 -1.689,-0.033 -2.274,0.539 -2.775,2.097 -8.594,26.731 -17.262,53.439 -25.916,80.151 -0.175,0.54 -0.36,1.078 -0.884,1.547 v -2.393 c 0,-26.356 -0.022,-52.709 0.048,-79.065 0.006,-1.894 -0.423,-2.396 -2.335,-2.343 -5.251,0.149 -10.511,0.132 -15.764,0.006 -1.713,-0.041 -2.107,0.4 -2.104,2.107 0.06,29.02 0.043,58.041 0.043,87.061 0,13.863 0.056,27.727 -0.06,41.589 -0.017,2.1 0.6,2.452 2.51,2.412 6.091,-0.125 12.187,-0.105 18.279,-0.004 1.472,0.025 2.104,-0.398 2.52,-1.803 C -17.298,57.907 -9.046,30.189 -0.8,2.47 -0.572,1.704 -0.309,0.95 0,0"
             style="fill:#020202;fill-opacity:1;fill-rule:evenodd;stroke:none"
             id="path22"
             inkscape:connector-curvature="0" /></g><g
           id="g24"
           transform="translate(764.8428,73.79)"><path
             d="m 0,0 c 0,-14.616 0.05,-29.231 -0.055,-43.848 -0.016,-2.173 0.654,-2.702 2.673,-2.575 2.578,0.163 5.174,0.032 7.763,0.041 8.47,0.028 12.979,4.517 12.981,12.938 0.004,17.051 0,34.104 0,51.156 0,5.633 0.043,11.267 -0.011,16.899 C 23.284,41.436 18.582,46.188 11.737,46.368 8.618,46.45 5.49,46.28 2.377,46.437 0.506,46.532 -0.059,46.021 -0.047,44.076 0.038,29.384 0,14.692 0,0 m -20.11,0.081 c 0,21.323 0.026,42.647 -0.042,63.97 -0.006,1.943 0.376,2.592 2.475,2.563 10.28,-0.14 20.562,-0.025 30.842,-0.126 13.982,-0.138 27.418,-12.119 29.396,-26.003 0.323,-2.273 0.457,-4.535 0.454,-6.818 -0.017,-23.456 0.107,-46.912 -0.105,-70.365 -0.13,-14.293 -12.103,-27.376 -26.234,-29.42 -4.633,-0.671 -9.27,-0.29 -13.905,-0.351 -6.852,-0.09 -13.708,0.053 -20.559,-0.07 -1.947,-0.036 -2.369,0.56 -2.363,2.422 0.065,21.399 0.041,42.799 0.041,64.198"
             style="fill:#8bc34a;fill-opacity:1;fill-rule:evenodd;stroke:none"
             id="path26"
             inkscape:connector-curvature="0" /></g><g
           id="g28"
           transform="translate(470.5869,74.0273)"><path
             d="m 0,0 c 0,12.025 0.002,24.05 -0.003,36.076 0,1.137 -0.002,2.265 -0.311,3.391 -1.514,5.521 -6.869,9.146 -12.478,8.402 -5.8,-0.768 -10.046,-5.657 -10.051,-11.684 -0.016,-24.127 -0.017,-48.253 0.002,-72.379 0.006,-6.713 5.069,-11.76 11.651,-11.72 6.417,0.041 11.185,5.075 11.187,11.839 C 0.005,-24.049 0,-12.024 0,0 m 21.025,-0.138 c 0,-12.262 0.01,-24.524 -0.002,-36.789 -0.014,-17.094 -14.164,-30.834 -31.295,-31.268 -17.608,-0.448 -32.625,14.58 -32.389,32.319 0.326,24.217 0.074,48.442 0.084,72.663 0.008,16.093 13.12,30.122 28.913,31.309 19.911,1.496 32.995,-13.58 34.526,-27.568 0.141,-1.283 0.157,-2.584 0.158,-3.876 0.01,-12.263 0.005,-24.526 0.005,-36.79"
             style="fill:#010101;fill-opacity:1;fill-rule:evenodd;stroke:none"
             id="path30"
             inkscape:connector-curvature="0" /></g><g
           id="g32"
           transform="translate(659.624,7.2979)"><path
             d="m 0,0 c -7.543,0 -14.926,0.038 -22.311,-0.036 -1.338,-0.014 -1.593,0.7 -1.971,1.672 -6.484,16.684 -12.994,33.357 -19.5,50.032 -0.194,0.495 -0.398,0.984 -0.666,1.648 -1.441,-1.545 -1.938,-3.537 -2.991,-5.185 -2.591,-4.045 -3.307,-8.402 -3.195,-13.196 0.256,-10.96 0.033,-21.931 0.129,-32.895 0.014,-1.759 -0.475,-2.115 -2.138,-2.082 -5.403,0.111 -10.813,0.086 -16.218,0.012 -1.404,-0.02 -1.919,0.231 -1.918,1.813 0.049,43.177 0.05,86.356 -0.003,129.534 -0.002,1.639 0.601,1.799 1.955,1.783 5.406,-0.063 10.814,-0.108 16.218,0.021 1.746,0.042 2.106,-0.457 2.096,-2.134 -0.072,-14.01 -0.04,-28.023 -0.04,-42.035 v -2.185 c 0.133,-0.043 0.267,-0.086 0.401,-0.128 1.83,3.519 3.672,7.033 5.49,10.559 5.842,11.329 11.7,22.651 17.478,34.013 0.715,1.408 1.514,1.935 3.116,1.905 5.71,-0.108 11.422,-0.033 17.132,-0.054 0.651,-0.001 1.345,0.209 2.141,-0.318 -2.814,-5.607 -5.62,-11.217 -8.445,-16.818 -6.047,-11.992 -12.076,-23.991 -18.19,-35.949 -0.678,-1.327 -0.209,-2.296 0.246,-3.409 C -21.006,51.638 -10.83,26.706 -0.658,1.773 -0.435,1.228 -0.247,0.666 0,0"
             style="fill:#010101;fill-opacity:1;fill-rule:evenodd;stroke:none"
             id="path34"
             inkscape:connector-curvature="0" /></g><g
           id="g36"
           transform="translate(254.8691,86.2192)"><path
             d="m 0,0 c 0,-16.298 0.001,-32.597 -0.001,-48.895 -0.001,-17.558 -13.854,-31.141 -31.409,-31.473 -16.373,-0.309 -28.95,11.88 -31.502,24.624 -0.403,2.014 -0.7,4.041 -0.7,6.111 0.01,33.892 0.018,67.784 -0.028,101.676 -0.003,1.612 0.245,2.212 2.054,2.161 5.175,-0.146 10.358,-0.138 15.534,-0.005 1.812,0.047 2.22,-0.473 2.217,-2.24 -0.055,-33.435 -0.044,-66.87 -0.037,-100.305 0.002,-5.859 3.702,-10.404 9.354,-11.565 5.217,-1.069 10.486,1.751 12.657,6.721 0.722,1.651 0.843,3.358 0.843,5.12 -0.011,33.207 0.008,66.413 -0.049,99.62 -0.003,1.97 0.326,2.737 2.536,2.663 5.476,-0.184 10.966,-0.133 16.447,-0.018 1.688,0.036 2.135,-0.367 2.128,-2.1 C -0.029,34.73 0,17.365 0,0"
             style="fill:#010101;fill-opacity:1;fill-rule:evenodd;stroke:none"
             id="path38"
             inkscape:connector-curvature="0" /></g><g
           id="g40"
           transform="translate(528.791,73.4746)"><path
             d="m 0,0 c 0,-11.96 -0.004,-23.917 0.001,-35.877 0.003,-6.903 4.793,-11.934 11.353,-11.94 6.497,-0.006 11.456,5.113 11.481,11.892 0.019,5.485 0.038,10.969 -0.021,16.453 -0.014,1.355 0.153,2.047 1.812,2.016 5.786,-0.105 11.577,-0.091 17.365,-0.006 1.45,0.021 1.775,-0.436 1.759,-1.812 -0.072,-6.17 0.048,-12.343 -0.047,-18.51 -0.251,-16.27 -14.516,-29.891 -30.83,-30.309 -17.251,-0.441 -29.682,12.48 -32.076,24.845 -0.405,2.094 -0.695,4.195 -0.695,6.342 0.013,24.602 -0.005,49.206 0.013,73.81 0.013,17.104 14.108,30.875 31.233,31.377 17.983,0.528 33.131,-14.949 32.399,-32.194 -0.186,-4.41 -0.073,-8.836 -0.002,-13.253 0.022,-1.283 -0.332,-1.689 -1.649,-1.674 -5.866,0.068 -11.732,0.067 -17.596,0.002 -1.296,-0.015 -1.707,0.361 -1.687,1.662 0.068,4.493 0.04,8.988 0.023,13.482 C 22.812,42.951 17.893,47.986 11.43,48.003 4.958,48.021 0.015,42.999 0.006,36.334 -0.014,24.222 0,12.111 0,0"
             style="fill:#020202;fill-opacity:1;fill-rule:evenodd;stroke:none"
             id="path42"
             inkscape:connector-curvature="0" /></g><g
           id="g44"
           transform="translate(673.8916,74.0332)"><path
             d="m 0,0 c 0,21.247 0.034,42.494 -0.05,63.741 -0.007,2.115 0.578,2.632 2.647,2.621 17.362,-0.082 34.726,-0.08 52.09,-10e-4 1.983,0.01 2.615,-0.447 2.548,-2.508 C 57.076,58.832 57.094,53.8 57.229,48.777 57.283,46.758 56.814,46.072 54.638,46.097 43.902,46.219 33.163,46.123 22.426,46.183 20.77,46.193 20.041,45.947 20.062,44 c 0.104,-10.585 0.087,-21.171 0.01,-31.756 -0.013,-1.697 0.425,-2.205 2.157,-2.184 7.613,0.094 15.231,0.002 22.845,0.071 1.555,0.015 2.12,-0.375 2.092,-2.021 -0.097,-5.405 -0.103,-10.814 0.002,-16.219 0.032,-1.688 -0.597,-1.997 -2.113,-1.984 -7.616,0.067 -15.232,-0.026 -22.846,0.072 -1.746,0.023 -2.147,-0.503 -2.136,-2.183 0.073,-10.813 0.072,-21.627 0,-32.442 -0.011,-1.635 0.5,-2.023 2.068,-2.014 10.889,0.063 21.78,-0.012 32.669,0.076 1.877,0.017 2.47,-0.447 2.42,-2.382 -0.134,-5.251 -0.105,-10.509 -0.011,-15.763 0.03,-1.609 -0.464,-2.043 -2.055,-2.04 -17.669,0.053 -35.336,0.068 -53.003,-0.013 -1.934,-0.01 -2.195,0.69 -2.191,2.355 C 0.02,-46.226 0,-28.025 0,-9.823 Z"
             style="fill:#8bc34a;fill-opacity:1;fill-rule:evenodd;stroke:none"
             id="path46"
             inkscape:connector-curvature="0" /></g><g
           id="g48"
           transform="translate(359.4536,73.9883)"><path
             d="m 0,0 c 0,21.397 0.021,42.794 -0.042,64.191 -0.004,1.752 0.386,2.286 2.206,2.239 5.251,-0.135 10.509,-0.127 15.76,-0.003 1.773,0.042 2.23,-0.42 2.228,-2.215 -0.058,-36.092 -0.024,-72.186 -0.094,-108.278 -0.004,-2.07 0.5,-2.591 2.568,-2.568 10.051,0.116 20.102,0.018 30.153,0.089 1.56,0.011 2.064,-0.336 2.031,-1.978 -0.111,-5.404 -0.109,-10.813 0,-16.217 0.031,-1.63 -0.451,-1.991 -2.022,-1.986 -16.904,0.057 -33.81,0.062 -50.714,-0.005 -1.674,-0.006 -2.125,0.346 -2.119,2.085 C 0.023,-43.098 0,-21.549 0,0"
             style="fill:#000000;fill-opacity:1;fill-rule:evenodd;stroke:none"
             id="path50"
             inkscape:connector-curvature="0" /></g><g
           id="g52"><g
             id="g54" /><g
             id="g194"><g
               clip-path="url(#clipPath58)"
               id="g192"><g
                 transform="translate(140.8604,127.6523)"
                 id="g62"><path
                   d="m 0,0 c 0,6.052 -4.869,10.92 -10.92,10.92 h -0.217 c -6.051,0 -10.924,-4.868 -10.924,-10.92 0,-6.047 4.873,-10.916 10.924,-10.916 h 0.217 C -4.869,-10.916 0,-6.047 0,0 m -10.871,15.736 c 8.714,0 15.732,-7.014 15.732,-15.732 0,-8.714 -7.018,-15.735 -15.732,-15.735 h -0.319 c -7.741,0 -14.142,5.538 -15.477,12.882 h 2.134 v 5.705 h -2.134 c 1.335,7.346 7.736,12.88 15.477,12.88 z"
                   style="fill:#8bc34a;fill-opacity:1;fill-rule:nonzero;stroke:none"
                   id="path60"
                   inkscape:connector-curvature="0" /></g><g
                 transform="translate(140.8604,74.999)"
                 id="g66"><path
                   d="m 0,0 c 0,6.051 -4.869,10.92 -10.92,10.92 h -0.217 c -6.051,0 -10.924,-4.869 -10.924,-10.92 0,-6.048 4.873,-10.92 10.924,-10.92 h 0.217 C -4.869,-10.92 0,-6.048 0,0 M -10.871,15.732 C -2.157,15.732 4.861,8.714 4.861,0 c 0,-8.714 -7.018,-15.731 -15.732,-15.731 h -0.319 c -7.741,0 -14.142,5.534 -15.477,12.878 h 2.126 v 5.706 h -2.126 c 1.335,7.344 7.736,12.879 15.477,12.879 z"
                   style="fill:#8bc34a;fill-opacity:1;fill-rule:nonzero;stroke:none"
                   id="path64"
                   inkscape:connector-curvature="0" /></g><g
                 transform="translate(140.8604,21.5771)"
                 id="g70"><path
                   d="m 0,0 c 0,6.048 -4.869,10.92 -10.92,10.92 h -0.217 c -6.051,0 -10.924,-4.872 -10.924,-10.92 0,-6.052 4.873,-10.92 10.924,-10.92 h 0.217 C -4.869,-10.92 0,-6.052 0,0 M -10.871,15.735 C -2.157,15.735 4.861,8.718 4.861,0 c 0,-8.718 -7.018,-15.731 -15.732,-15.731 h -0.319 c -7.741,0 -14.142,5.534 -15.477,12.878 h 2.134 v 5.706 h -2.134 c 1.335,7.348 7.736,12.882 15.477,12.882 z"
                   style="fill:#8bc34a;fill-opacity:1;fill-rule:nonzero;stroke:none"
                   id="path68"
                   inkscape:connector-curvature="0" /></g><g
                 transform="translate(116.3271,24.4297)"
                 id="g74"><path
                   d="m 0,0 v -5.705 h -2.134 c -0.167,0.924 -0.255,1.879 -0.255,2.852 0,0.974 0.088,1.929 0.255,2.853 z"
                   style="fill:#8bc34a;fill-opacity:1;fill-rule:nonzero;stroke:none"
                   id="path72"
                   inkscape:connector-curvature="0" /></g><g
                 transform="translate(116.3271,130.5088)"
                 id="g78"><path
                   d="m 0,0 v -5.705 h -2.134 c -0.167,0.924 -0.255,1.879 -0.255,2.852 0,0.974 0.088,1.929 0.255,2.853 z"
                   style="fill:#8bc34a;fill-opacity:1;fill-rule:nonzero;stroke:none"
                   id="path76"
                   inkscape:connector-curvature="0" /></g><g
                 transform="translate(116.3193,77.8516)"
                 id="g82"><path
                   d="m 0,0 v -5.705 h -2.126 c -0.167,0.924 -0.255,1.879 -0.255,2.852 0,0.974 0.088,1.929 0.255,2.853 z"
                   style="fill:#8bc34a;fill-opacity:1;fill-rule:nonzero;stroke:none"
                   id="path80"
                   inkscape:connector-curvature="0" /></g><g
                 transform="translate(92.2197,130.5088)"
                 id="g86"><path
                   d="m 0,0 h 21.974 c -0.168,-0.924 -0.255,-1.879 -0.255,-2.853 0,-0.973 0.087,-1.928 0.255,-2.852 H 0 c 0.167,0.924 0.255,1.879 0.255,2.852 C 0.255,-1.879 0.167,-0.924 0,0"
                   style="fill:#8bc34a;fill-opacity:1;fill-rule:nonzero;stroke:none"
                   id="path84"
                   inkscape:connector-curvature="0" /></g><g
                 transform="translate(92.2197,77.8516)"
                 id="g90"><path
                   d="m 0,0 h 21.974 c -0.168,-0.924 -0.255,-1.879 -0.255,-2.853 0,-0.973 0.087,-1.928 0.255,-2.852 H 0 c 0.167,0.924 0.255,1.879 0.255,2.852 C 0.255,-1.879 0.167,-0.924 0,0"
                   style="fill:#8bc34a;fill-opacity:1;fill-rule:nonzero;stroke:none"
                   id="path88"
                   inkscape:connector-curvature="0" /></g><g
                 transform="translate(92.2197,24.4297)"
                 id="g94"><path
                   d="m 0,0 h 21.974 c -0.168,-0.924 -0.255,-1.879 -0.255,-2.853 0,-0.973 0.087,-1.928 0.255,-2.852 H 0 c 0.167,0.924 0.255,1.879 0.255,2.852 C 0.255,-1.879 0.167,-0.924 0,0"
                   style="fill:#8bc34a;fill-opacity:1;fill-rule:nonzero;stroke:none"
                   id="path92"
                   inkscape:connector-curvature="0" /></g><g
                 transform="translate(92.2197,130.5088)"
                 id="g98"><path
                   d="M 0,0 C 0.167,-0.924 0.255,-1.879 0.255,-2.853 0.255,-3.826 0.167,-4.781 0,-5.705 H -1.267 V 0 Z"
                   style="fill:#8bc34a;fill-opacity:1;fill-rule:nonzero;stroke:none"
                   id="path96"
                   inkscape:connector-curvature="0" /></g><g
                 transform="translate(92.2197,77.8516)"
                 id="g102"><path
                   d="M 0,0 C 0.167,-0.924 0.255,-1.879 0.255,-2.853 0.255,-3.826 0.167,-4.781 0,-5.705 H -1.259 V 0 Z"
                   style="fill:#8bc34a;fill-opacity:1;fill-rule:nonzero;stroke:none"
                   id="path100"
                   inkscape:connector-curvature="0" /></g><g
                 transform="translate(92.2197,24.4297)"
                 id="g106"><path
                   d="M 0,0 C 0.167,-0.924 0.255,-1.879 0.255,-2.853 0.255,-3.826 0.167,-4.781 0,-5.705 H -1.267 V 0 Z"
                   style="fill:#8bc34a;fill-opacity:1;fill-rule:nonzero;stroke:none"
                   id="path104"
                   inkscape:connector-curvature="0" /></g><g
                 transform="translate(87.6172,127.6523)"
                 id="g110"><path
                   d="m 0,0 c 0,6.056 -4.873,10.924 -10.92,10.924 h -0.221 c -6.047,0 -10.92,-4.868 -10.92,-10.924 0,-6.047 4.873,-10.916 10.92,-10.916 h 0.221 C -4.873,-10.916 0,-6.047 0,0 M 4.603,2.856 H 3.336 v -5.705 h 1.267 c -1.176,-6.47 -6.284,-11.54 -12.781,-12.654 v 1.38 h -5.705 v -1.38 c -7.425,1.27 -13.039,7.71 -13.039,15.507 0,8.718 7.014,15.732 15.732,15.732 h 0.315 c 7.745,0 14.143,-5.534 15.478,-12.88"
                   style="fill:#8bc34a;fill-opacity:1;fill-rule:nonzero;stroke:none"
                   id="path108"
                   inkscape:connector-curvature="0" /></g><g
                 transform="translate(87.6172,74.999)"
                 id="g114"><path
                   d="m 0,0 c 0,6.051 -4.873,10.92 -10.92,10.92 h -0.221 c -6.047,0 -10.92,-4.869 -10.92,-10.92 0,-6.048 4.873,-10.924 10.92,-10.924 h 0.221 C -4.873,-10.924 0,-6.048 0,0 m 4.603,2.853 h -1.26 v -5.706 h 1.26 C 3.427,-9.323 -1.681,-14.39 -8.178,-15.504 v 0.616 h -5.705 v -0.616 c -7.425,1.271 -13.039,7.706 -13.039,15.504 0,7.797 5.614,14.233 13.039,15.503 v -2.346 h 5.705 v 2.346 C -1.681,14.389 3.427,9.323 4.603,2.853"
                   style="fill:#8bc34a;fill-opacity:1;fill-rule:nonzero;stroke:none"
                   id="path112"
                   inkscape:connector-curvature="0" /></g><g
                 transform="translate(87.6172,21.5771)"
                 id="g118"><path
                   d="m 0,0 c 0,6.048 -4.873,10.924 -10.92,10.924 h -0.221 c -6.047,0 -10.92,-4.876 -10.92,-10.924 0,-6.052 4.873,-10.92 10.92,-10.92 h 0.221 C -4.873,-10.92 0,-6.052 0,0 M 4.603,2.853 H 3.336 V -2.853 H 4.603 C 3.268,-10.197 -3.13,-15.731 -10.875,-15.731 h -0.315 c -7.745,0 -14.142,5.534 -15.477,12.878 h 1.799 v 5.706 h -1.799 c 1.175,6.473 6.287,11.543 12.784,12.654 v -2.351 h 5.705 v 2.351 C -1.681,14.393 3.427,9.326 4.603,2.853"
                   style="fill:#8bc34a;fill-opacity:1;fill-rule:nonzero;stroke:none"
                   id="path116"
                   inkscape:connector-curvature="0" /></g><g
                 transform="translate(79.4395,37.084)"
                 id="g122"><path
                   d="M 0,0 V -2.351 H -5.706 V 0 c 0.875,0.152 1.773,0.229 2.693,0.229 h 0.316 C -1.776,0.229 -0.875,0.148 0,0"
                   style="fill:#8bc34a;fill-opacity:1;fill-rule:nonzero;stroke:none"
                   id="path120"
                   inkscape:connector-curvature="0" /></g><g
                 transform="translate(79.4395,59.4951)"
                 id="g126"><path
                   d="m 0,0 v -22.411 c -0.875,0.148 -1.776,0.228 -2.697,0.228 h -0.316 c -0.92,0 -1.818,-0.076 -2.693,-0.228 V 0 c 0.875,-0.152 1.773,-0.228 2.693,-0.228 h 0.316 c 0.921,0 1.822,0.08 2.697,0.228"
                   style="fill:#8bc34a;fill-opacity:1;fill-rule:nonzero;stroke:none"
                   id="path124"
                   inkscape:connector-curvature="0" /></g><g
                 transform="translate(79.4395,60.1113)"
                 id="g130"><path
                   d="m 0,0 v -0.616 c -0.875,-0.149 -1.776,-0.228 -2.697,-0.228 h -0.316 c -0.92,0 -1.818,0.075 -2.693,0.228 l 0,0.616 z"
                   style="fill:#8bc34a;fill-opacity:1;fill-rule:nonzero;stroke:none"
                   id="path128"
                   inkscape:connector-curvature="0" /></g><g
                 transform="translate(79.4395,90.5024)"
                 id="g134"><path
                   d="M 0,0 V -2.347 H -5.706 V 0 c 0.875,0.152 1.773,0.229 2.693,0.229 h 0.316 C -1.776,0.229 -0.875,0.148 0,0"
                   style="fill:#8bc34a;fill-opacity:1;fill-rule:nonzero;stroke:none"
                   id="path132"
                   inkscape:connector-curvature="0" /></g><g
                 transform="translate(79.4395,112.1489)"
                 id="g138"><path
                   d="m 0,0 v -21.646 c -0.875,0.148 -1.776,0.228 -2.697,0.228 h -0.316 c -0.92,0 -1.818,-0.076 -2.693,-0.228 V 0 c 0.875,-0.148 1.773,-0.228 2.693,-0.228 h 0.316 c 0.921,0 1.822,0.08 2.697,0.228"
                   style="fill:#8bc34a;fill-opacity:1;fill-rule:nonzero;stroke:none"
                   id="path136"
                   inkscape:connector-curvature="0" /></g><g
                 transform="translate(79.4395,113.5298)"
                 id="g142"><path
                   d="m 0,0 v -1.381 c -0.875,-0.148 -1.776,-0.228 -2.697,-0.228 h -0.316 c -0.92,0 -1.818,0.08 -2.693,0.228 l 0,1.381 z"
                   style="fill:#8bc34a;fill-opacity:1;fill-rule:nonzero;stroke:none"
                   id="path140"
                   inkscape:connector-curvature="0" /></g><g
                 transform="translate(62.749,24.4297)"
                 id="g146"><path
                   d="m 0,0 v -5.705 h -1.799 c -0.167,0.924 -0.255,1.879 -0.255,2.852 0,0.974 0.088,1.929 0.255,2.853 z"
                   style="fill:#8bc34a;fill-opacity:1;fill-rule:nonzero;stroke:none"
                   id="path144"
                   inkscape:connector-curvature="0" /></g><g
                 transform="translate(39.5244,24.4297)"
                 id="g150"><path
                   d="m 0,0 h 21.426 c -0.168,-0.924 -0.255,-1.879 -0.255,-2.853 0,-0.973 0.087,-1.928 0.255,-2.852 H 0 c 0.167,0.924 0.255,1.879 0.255,2.852 C 0.255,-1.879 0.167,-0.924 0,0"
                   style="fill:#8bc34a;fill-opacity:1;fill-rule:nonzero;stroke:none"
                   id="path148"
                   inkscape:connector-curvature="0" /></g><g
                 transform="translate(39.5244,24.4297)"
                 id="g154"><path
                   d="M 0,0 C 0.167,-0.924 0.255,-1.879 0.255,-2.853 0.255,-3.826 0.167,-4.781 0,-5.705 H -2.146 V 0 Z"
                   style="fill:#8bc34a;fill-opacity:1;fill-rule:nonzero;stroke:none"
                   id="path152"
                   inkscape:connector-curvature="0" /></g><g
                 transform="translate(34.918,21.5771)"
                 id="g158"><path
                   d="m 0,0 c 0,6.048 -4.869,10.92 -10.917,10.92 h -0.224 c -6.044,0 -10.92,-4.872 -10.92,-10.92 0,-6.052 4.876,-10.92 10.92,-10.92 h 0.224 C -4.869,-10.92 0,-6.052 0,0 M 4.606,2.853 H 2.461 v -5.706 h 2.145 c -1.335,-7.344 -7.732,-12.878 -15.477,-12.878 h -0.316 c -8.717,0 -15.731,7.013 -15.731,15.731 0,7.797 5.61,14.237 13.035,15.507 v -2.358 h 5.705 v 2.358 C -1.681,14.396 3.431,9.326 4.606,2.853"
                   style="fill:#8bc34a;fill-opacity:1;fill-rule:nonzero;stroke:none"
                   id="path156"
                   inkscape:connector-curvature="0" /></g><g
                 transform="translate(34.918,127.6523)"
                 id="g162"><path
                   d="m 0,0 c 0,6.056 -4.869,10.924 -10.917,10.924 h -0.224 c -6.044,0 -10.92,-4.868 -10.92,-10.924 0,-6.047 4.876,-10.916 10.92,-10.916 h 0.224 C -4.869,-10.916 0,-6.047 0,0 m -10.871,15.736 c 8.718,0 15.732,-7.014 15.732,-15.732 0,-7.797 -5.614,-14.237 -13.039,-15.507 v 1.388 h -5.705 v -1.388 c -7.425,1.274 -13.035,7.713 -13.035,15.507 0,8.718 7.014,15.732 15.731,15.732 z"
                   style="fill:#8bc34a;fill-opacity:1;fill-rule:nonzero;stroke:none"
                   id="path160"
                   inkscape:connector-curvature="0" /></g><g
                 transform="translate(34.918,74.999)"
                 id="g166"><path
                   d="m 0,0 c 0,6.051 -4.869,10.92 -10.917,10.92 h -0.224 c -6.044,0 -10.92,-4.869 -10.92,-10.92 0,-6.048 4.876,-10.924 10.92,-10.924 h 0.224 C -4.869,-10.924 0,-6.048 0,0 M -8.178,15.503 C -0.753,14.233 4.861,7.797 4.861,0 c 0,-7.798 -5.614,-14.233 -13.039,-15.504 v 0.624 h -5.705 v -0.624 c -7.425,1.271 -13.035,7.71 -13.035,15.504 0,7.793 5.61,14.233 13.035,15.503 v -2.354 h 5.705 z"
                   style="fill:#8bc34a;fill-opacity:1;fill-rule:nonzero;stroke:none"
                   id="path164"
                   inkscape:connector-curvature="0" /></g><g
                 transform="translate(26.7402,37.084)"
                 id="g170"><path
                   d="M 0,0 V -2.357 H -5.706 V 0 c 0.875,0.148 1.777,0.229 2.697,0.229 h 0.316 C -1.772,0.229 -0.875,0.152 0,0"
                   style="fill:#8bc34a;fill-opacity:1;fill-rule:nonzero;stroke:none"
                   id="path168"
                   inkscape:connector-curvature="0" /></g><g
                 transform="translate(26.7402,59.4951)"
                 id="g174"><path
                   d="m 0,0 v -22.411 c -0.875,0.152 -1.772,0.228 -2.693,0.228 h -0.316 c -0.92,0 -1.822,-0.08 -2.697,-0.228 V 0 c 0.875,-0.148 1.777,-0.228 2.697,-0.228 h 0.316 c 0.921,0 1.818,0.076 2.693,0.228"
                   style="fill:#8bc34a;fill-opacity:1;fill-rule:nonzero;stroke:none"
                   id="path172"
                   inkscape:connector-curvature="0" /></g><g
                 transform="translate(26.7402,60.1191)"
                 id="g178"><path
                   d="m 0,0 v -0.624 c -0.875,-0.152 -1.772,-0.228 -2.693,-0.228 h -0.316 c -0.92,0 -1.822,0.08 -2.697,0.228 l 0,0.624 z"
                   style="fill:#8bc34a;fill-opacity:1;fill-rule:nonzero;stroke:none"
                   id="path176"
                   inkscape:connector-curvature="0" /></g><g
                 transform="translate(26.7402,90.5024)"
                 id="g182"><path
                   d="M 0,0 V -2.354 H -5.706 V 0 c 0.875,0.148 1.777,0.229 2.697,0.229 h 0.316 C -1.772,0.229 -0.875,0.152 0,0"
                   style="fill:#8bc34a;fill-opacity:1;fill-rule:nonzero;stroke:none"
                   id="path180"
                   inkscape:connector-curvature="0" /></g><g
                 transform="translate(26.7402,112.1489)"
                 id="g186"><path
                   d="m 0,0 v -21.646 c -0.875,0.152 -1.772,0.228 -2.693,0.228 h -0.316 c -0.92,0 -1.822,-0.08 -2.697,-0.228 V 0 c 0.875,-0.148 1.777,-0.228 2.697,-0.228 h 0.316 c 0.921,0 1.818,0.08 2.693,0.228"
                   style="fill:#8bc34a;fill-opacity:1;fill-rule:nonzero;stroke:none"
                   id="path184"
                   inkscape:connector-curvature="0" /></g><g
                 transform="translate(26.7402,113.5371)"
                 id="g190"><path
                   d="m 0,0 v -1.388 c -0.875,-0.149 -1.772,-0.228 -2.693,-0.228 h -0.316 c -0.92,0 -1.822,0.079 -2.697,0.228 l 0,1.388 z"
                   style="fill:#8bc34a;fill-opacity:1;fill-rule:nonzero;stroke:none"
                   id="path188"
                   inkscape:connector-curvature="0" /></g></g></g></g></g></g></g></svg>