<?xml version="1.0" encoding="UTF-8" standalone="no"?>
<!-- Generator: Adobe Illustrator 16.0.0, SVG Export Plug-In . SVG Version: 6.00 Build 0)  -->

<svg
   xmlns:dc="http://purl.org/dc/elements/1.1/"
   xmlns:cc="http://creativecommons.org/ns#"
   xmlns:rdf="http://www.w3.org/1999/02/22-rdf-syntax-ns#"
   xmlns:svg="http://www.w3.org/2000/svg"
   xmlns="http://www.w3.org/2000/svg"
   xmlns:sodipodi="http://sodipodi.sourceforge.net/DTD/sodipodi-0.dtd"
   xmlns:inkscape="http://www.inkscape.org/namespaces/inkscape"
   version="1.1"
   id="Layer_1"
   x="0px"
   y="0px"
   width="180"
   height="180"
   viewBox="0 0 180 180"
   enable-background="new 0 0 375 375"
   xml:space="preserve"
   sodipodi:docname="UE_UELogo_180x180.svg"
   inkscape:export-filename="/home/brandon/Pictures/UnlockEdThemeImages/UE_UELogo_180x180.png"
   inkscape:export-xdpi="46.080002"
   inkscape:export-ydpi="46.080002"
   inkscape:version="0.92.2 5c3e80d, 2017-08-06"><metadata
     id="metadata9"><rdf:RDF><cc:Work
         rdf:about=""><dc:format>image/svg+xml</dc:format><dc:type
           rdf:resource="http://purl.org/dc/dcmitype/StillImage" /><dc:title></dc:title></cc:Work></rdf:RDF></metadata><defs
     id="defs7" /><sodipodi:namedview
     pagecolor="#ffffff"
     bordercolor="#666666"
     borderopacity="1"
     objecttolerance="10"
     gridtolerance="10"
     guidetolerance="10"
     inkscape:pageopacity="0"
     inkscape:pageshadow="2"
     inkscape:window-width="1920"
     inkscape:window-height="1043"
     id="namedview5"
     showgrid="false"
     inkscape:zoom="0.62933333"
     inkscape:cx="-131.88559"
     inkscape:cy="187.5"
     inkscape:window-x="1366"
     inkscape:window-y="0"
     inkscape:window-maximized="1"
     inkscape:current-layer="layer2" /><g
     inkscape:groupmode="layer"
     id="layer1"
     inkscape:label="Layer 1"
     transform="translate(0,-195)"><path
       inkscape:connector-curvature="0"
       d="m 29.122519,217.68577 c 0.628483,0 1.257371,0 1.886261,0 0.143381,0.0319 0.285105,0.0735 0.430135,0.0926 0.540882,0.069 1.086306,0.11073 1.624291,0.1979 3.411372,0.55495 6.395922,2.00651 8.899496,4.38365 3.35725,3.18866 5.138988,7.11777 5.350477,11.74975 0.09592,2.10483 -0.190876,4.15845 -0.860646,6.15668 -1.935018,5.77527 -6.820281,10.07665 -12.797627,11.27376 -0.142547,0.0288 -0.281796,0.0714 -0.449563,0.11407 0,0.24155 0,0.45565 0,0.66941 0,5.8086 0,11.6167 0,17.42545 0,1.58865 -0.0014,3.17696 0.0019,4.76585 4.17e-4,0.17851 -0.03833,0.3636 0.06281,0.55741 0.130159,0.0343 0.272296,0.0748 0.416916,0.10411 3.45518,0.71051 6.447154,2.30112 8.865612,4.86367 3.984006,4.22055 5.451267,9.25327 4.49473,14.95442 -0.606929,3.61765 -2.316341,6.69969 -4.964954,9.23961 -2.375895,2.27934 -5.194745,3.73166 -8.419772,4.39438 -0.142958,0.0307 -0.283034,0.0695 -0.433443,0.1062 0,8.09015 0,16.14638 0,24.18827 0.127265,0.12952 0.281802,0.12827 0.426423,0.15765 3.558885,0.73424 6.596735,2.41189 9.084193,5.06078 2.181293,2.32306 3.582857,5.05887 4.242737,8.17504 0.02713,0.12696 0.01853,0.26783 0.194203,0.38509 0.165247,0 0.379269,0 0.593357,0 7.264843,0 14.529326,0 21.794026,-4.3e-4 0.149173,0 0.298383,0.009 0.446856,-0.005 0.09282,-0.008 0.183728,-0.0438 0.25157,-0.059 0.166585,-0.64089 0.300845,-1.25573 0.488303,-1.85365 0.188418,-0.59874 0.406353,-1.19018 0.65418,-1.76605 0.241615,-0.56048 0.514919,-1.11076 0.81652,-1.64245 0.310743,-0.54518 0.650252,-1.07674 1.018811,-1.585 0.36792,-0.50825 0.766924,-0.99708 1.18938,-1.46156 0.422268,-0.46442 0.871912,-0.90788 1.342311,-1.32269 0.470389,-0.41534 0.966501,-0.80622 1.480644,-1.16649 0.513591,-0.35991 1.050309,-0.69156 1.600333,-0.99446 0.534927,-0.2935 1.089597,-0.5588 1.654306,-0.79129 0.579314,-0.23837 1.175673,-0.44374 1.776385,-0.62387 0.598349,-0.17933 1.211468,-0.30889 1.825065,-0.46221 0,-8.08421 0,-16.14057 0,-24.20848 -0.241266,-0.14629 -0.515151,-0.14744 -0.76881,-0.20279 -5.108148,-1.12104 -9.483905,-4.60261 -11.698694,-9.31775 -1.392763,-2.96537 -1.879648,-6.07774 -1.521719,-9.32874 0.227166,-2.06184 0.824248,-4.01145 1.772665,-5.85389 2.394382,-4.65332 6.800479,-7.91181 11.801437,-8.88833 0.140045,-0.0283 0.275912,-0.0804 0.436707,-0.12875 0,-0.22151 0,-0.41856 0,-0.61537 0,-7.38087 0,-14.76192 0,-22.1421 0,-0.0992 0.0047,-0.19873 -0.0014,-0.29744 -0.008,-0.11127 -0.02335,-0.2216 -0.03649,-0.33855 -0.132677,-0.0371 -0.241763,-0.0736 -0.35315,-0.0962 -3.617563,-0.72812 -6.696811,-2.43172 -9.202392,-5.13733 -2.655755,-2.86719 -4.139865,-6.27196 -4.474666,-10.16099 -0.164468,-1.90568 -0.0099,-3.79649 0.457495,-5.66249 1.411882,-5.64928 5.732436,-10.26223 11.285719,-12.02659 1.314759,-0.41817 2.658875,-0.67311 4.032736,-0.78096 0.161296,-0.0127 0.318584,-0.062 0.478519,-0.0946 0.628921,0 1.257444,0 1.886662,0 0.139412,0.11817 0.312416,0.0868 0.473212,0.1 0.974276,0.0777 1.937147,0.22477 2.884822,0.46402 6.361011,1.60156 11.175132,6.59839 12.536702,13.00835 0.0307,0.1409 0.0808,0.27727 0.13052,0.44213 0.19985,0 0.38,0 0.56063,0 7.52735,0 15.05422,0 22.58102,0 0.0996,0 0.19923,0.006 0.29785,-0.003 0.11086,-0.009 0.21989,-0.0307 0.32618,-0.0463 0.0458,-0.18677 0.0871,-0.34626 0.12214,-0.50783 1.22019,-5.66373 5.29733,-10.35767 10.72824,-12.34929 1.51524,-0.55575 3.07837,-0.88879 4.6875,-1.0107 0.16062,-0.0123 0.33415,0.0174 0.47515,-0.0988 0.62855,0 1.25779,0 1.88631,0 0.14122,0.11406 0.3144,0.0851 0.47603,0.0967 0.79328,0.057 1.58033,0.15866 2.35557,0.33551 4.88562,1.11482 8.63665,3.8126 11.17742,8.1355 1.33505,2.27135 2.13012,4.72576 2.19337,7.38635 0.005,0.1442 0.0532,0.28717 0.0821,0.43055 0,0.49625 0,0.99251 0,1.48918 -0.11764,0.16156 -0.0821,0.34956 -0.085,0.52724 -0.0117,0.64665 -0.0715,1.28588 -0.19932,1.92138 -0.94622,4.73196 -3.42784,8.44497 -7.44582,11.10401 -2.80483,1.85653 -5.91914,2.73118 -9.28277,2.758 -2.29429,0.019 -4.51149,-0.34044 -6.64976,-1.17843 -5.28568,-2.07135 -9.20278,-6.67647 -10.40266,-12.22946 -0.0379,-0.17314 -0.0901,-0.34296 -0.1315,-0.49915 -0.50413,-0.0636 -23.36054,-0.0566 -23.77263,0.005 -0.15476,0.59583 -0.28912,1.20778 -0.47501,1.80444 -0.18653,0.59873 -0.39836,1.19291 -0.6448,1.76973 -0.24652,0.57683 -0.52677,1.14167 -0.83536,1.68709 -0.30952,0.54626 -0.65112,1.07681 -1.01824,1.58505 -0.36763,0.50823 -0.76607,0.99869 -1.18583,1.46396 -0.409738,0.45368 -0.8475,0.88589 -1.303978,1.2908 -0.470352,0.41607 -0.963278,0.8099 -1.475611,1.17269 -0.51189,0.36148 -1.046552,0.69746 -1.595781,1.0012 -0.548639,0.30285 -1.118179,0.57548 -1.696472,0.81562 -0.579296,0.2409 -1.175763,0.44575 -1.775969,0.62675 -0.59661,0.18022 -1.20893,0.31035 -1.802113,0.45954 -0.0781,0.55989 -0.110173,17.95931 -0.04632,23.00779 0.0019,0.1297 0.0191,0.259 0.02883,0.40859 0.155463,0.0406 0.294705,0.0852 0.437974,0.11368 0.714529,0.14326 1.416103,0.3329 2.105259,0.56652 5.7316,1.94408 9.963861,6.79039 11.172241,12.59555 0.0298,0.14166 0.0793,0.27797 0.12889,0.44451 0.21533,0 0.411,0 0.60856,0 7.51209,0 15.02409,0 22.53593,0 0.0997,-3.6e-4 0.1993,0.007 0.29794,-0.002 0.11042,-0.01 0.21945,-0.0312 0.32601,-0.0456 0.0433,-0.17094 0.0832,-0.31403 0.11412,-0.45913 1.12967,-5.35652 4.88104,-9.97077 10.10232,-12.13721 2.05677,-0.85331 4.19972,-1.27674 6.42609,-1.29994 1.37668,-0.0156 2.74638,0.067 4.09224,0.37227 4.79317,1.08914 8.50112,3.71878 11.05074,7.92305 1.41049,2.32637 2.25021,4.85157 2.31683,7.6006 0.005,0.14376 0.0532,0.28661 0.0821,0.43011 0,0.49629 0,0.99236 0,1.48898 -0.11032,0.14464 -0.0859,0.31625 -0.0851,0.47689 0.009,1.00083 -0.1723,1.97462 -0.41188,2.93998 -1.81893,7.33563 -8.34956,12.65683 -15.97919,12.8727 -1.55945,0.0442 -3.10578,-0.0495 -4.63614,-0.38753 -6.33237,-1.39983 -11.32266,-6.27737 -12.85381,-12.58274 -0.0736,-0.30203 -0.14419,-0.60559 -0.22357,-0.9391 -0.21116,-0.006 -0.40715,-0.0149 -0.60298,-0.0149 -5.26293,-4.2e-4 -10.52527,-4.2e-4 -15.78829,-4.2e-4 -2.28304,0 -4.56755,-9.4e-4 -6.85054,0.002 -0.17933,0 -0.36404,-0.0389 -0.56506,0.0648 -0.19648,0.93769 -0.44192,1.87978 -0.78443,2.79488 -0.34941,0.93181 -0.77392,1.8267 -1.27785,2.68508 -0.49644,0.84327 -1.06028,1.63864 -1.69352,2.38441 -0.64409,0.75913 -1.349232,1.45583 -2.115371,2.09124 -0.753883,0.62477 -1.554031,1.1817 -2.403193,1.66785 -0.864141,0.49252 -1.764829,0.90429 -2.699179,1.24603 -0.916243,0.33602 -1.865128,0.55248 -2.791495,0.76157 -0.02723,0.0687 -0.04557,0.0984 -0.04803,0.13065 -0.008,0.0984 -0.01172,0.19786 -0.01172,0.29715 0.0047,7.91019 0.009,15.82007 0.01347,23.73085 0,0.0157 0.01163,0.032 0.01976,0.0465 0.008,0.0155 0.01768,0.0274 0.05322,0.0875 3.438202,0.63927 6.462946,2.17753 8.978765,4.66949 2.518623,2.49279 4.083703,5.50395 4.765643,8.97479 0.0911,0.0191 0.15478,0.0439 0.21769,0.0439 7.81106,0 15.62227,-9.4e-4 23.43342,-0.004 0.0468,0 0.0929,-0.0298 0.16056,-0.0508 0.0438,-0.1846 0.0873,-0.37587 0.13057,-0.56738 0.74791,-3.27978 2.30154,-6.11645 4.71342,-8.46338 2.82511,-2.74987 6.2067,-4.34412 10.13206,-4.75735 1.88751,-0.19871 3.77136,-0.15082 5.6299,0.24686 4.23498,0.90657 7.68097,3.08192 10.25431,6.5664 1.97137,2.66948 3.13586,5.65522 3.23827,9.00942 0.004,0.127 0.0534,0.25244 0.081,0.3781 0,0.49636 0,0.99264 0,1.48954 -0.11201,0.18101 -0.0838,0.38487 -0.0859,0.58037 -0.007,0.54703 -0.0468,1.0912 -0.14468,1.62883 -0.6895,3.80593 -2.43206,7.04401 -5.28607,9.65579 -2.89554,2.65031 -6.32483,4.10074 -10.23315,4.42331 -0.21296,0.0192 -0.42287,0.0628 -0.63483,0.0947 -0.5619,0 -1.12508,0 -1.68833,0 -0.17801,-0.0307 -0.35495,-0.0748 -0.53387,-0.0878 -0.90849,-0.0685 -1.8064,-0.20582 -2.69534,-0.40838 -6.36117,-1.44831 -11.40181,-6.56892 -12.76397,-12.96915 -0.0375,-0.17256 -0.0922,-0.34157 -0.13349,-0.49709 -0.55453,-0.0599 -23.38311,-0.0494 -23.77796,0.0108 -0.0357,0.13427 -0.0773,0.27584 -0.1095,0.41985 -0.94515,4.28819 -3.19412,7.72996 -6.746051,10.30338 -2.579491,1.86929 -5.483981,2.8858 -8.658418,3.13625 -0.195871,0.0165 -0.388831,0.0615 -0.583483,0.0938 -0.56254,0 -1.125671,0 -1.687912,0 -0.195026,-0.0317 -0.389234,-0.0667 -0.585029,-0.0918 -0.623197,-0.0794 -1.253266,-0.12113 -1.868961,-0.2371 -3.873052,-0.73265 -7.131996,-2.5655 -9.740727,-5.5231 -1.979819,-2.24381 -3.252927,-4.84774 -3.872919,-7.77326 -0.02472,-0.11036 -0.05543,-0.21825 -0.08516,-0.33558 -0.212358,-0.0624 -0.411311,-0.0387 -0.605873,-0.0387 -7.33095,-0.002 -14.661232,-0.001 -21.991586,-0.001 -0.09926,0 -0.198806,-0.004 -0.297943,0.001 -0.09466,0.007 -0.188885,0.0212 -0.293835,0.0324 -0.03479,0.13428 -0.06689,0.24362 -0.0905,0.35495 -1.138298,5.31274 -4.545123,9.63233 -9.429979,11.94613 -1.889142,0.89489 -3.881589,1.40226 -5.962881,1.57023 -0.195446,0.0175 -0.388007,0.0628 -0.582209,0.0955 -0.595408,0 -1.191245,0 -1.787073,0 -0.161148,-0.0307 -0.321057,-0.0671 -0.483452,-0.0878 -0.540472,-0.0687 -1.085059,-0.1118 -1.621801,-0.19934 -3.601867,-0.5941 -6.709559,-2.1796 -9.275929,-4.76709 -2.951905,-2.9763 -4.590652,-6.57642 -4.91461,-10.76446 -0.02074,-0.26545 -0.05495,-0.5257 -0.187579,-0.76365 0,-0.33098 0,-0.66192 0,-0.99267 0.120648,-0.27665 0.170237,-0.56684 0.190891,-0.86686 0.02193,-0.31324 0.05619,-0.62635 0.09463,-0.93781 0.263209,-2.10901 0.897457,-4.10468 1.941218,-5.95189 2.579181,-4.56614 6.447548,-7.39993 11.573711,-8.51423 0.142558,-0.0319 0.299982,-0.0217 0.439228,-0.18149 0.0038,-0.19514 0.0094,-0.424 0.0094,-0.65364 4.14e-4,-7.59454 0,-15.18972 0,-22.78432 0,-0.13229 0.0055,-0.26529 -0.0028,-0.39693 -0.0063,-0.11219 -0.02802,-0.22192 -0.04042,-0.31406 -0.05784,-0.0321 -0.08512,-0.0541 -0.115708,-0.0614 -0.09586,-0.0251 -0.193779,-0.0416 -0.290466,-0.0624 -5.10797,-1.1091 -8.969314,-3.92832 -11.548531,-8.47147 -1.217633,-2.14562 -1.886589,-4.46956 -2.061374,-6.93212 -0.02118,-0.30014 -0.07437,-0.58974 -0.190076,-0.86691 0,-0.29825 0,-0.59536 0,-0.89368 0.09957,-0.29584 0.176015,-0.59417 0.192546,-0.91033 0.05041,-0.96025 0.215277,-1.90494 0.44956,-2.8355 1.64784,-6.55366 6.919014,-11.32168 13.168257,-12.54725 0.141728,-0.0284 0.279718,-0.0764 0.406594,-0.11222 0.01581,-0.0832 0.03317,-0.13192 0.03317,-0.18055 0.0033,-7.49173 0.005,-14.98391 0.0063,-22.47602 0,-0.21497 -0.0086,-0.42984 -0.01393,-0.64456 -4.12e-4,-0.0166 -0.0059,-0.0341 -0.01231,-0.0475 -0.0067,-0.0152 -0.01787,-0.0274 -0.0496,-0.0723 -0.09542,-0.0265 -0.21897,-0.067 -0.345415,-0.093 -3.667423,-0.74844 -6.777153,-2.49329 -9.287334,-5.26463 -2.607333,-2.87877 -4.056435,-6.27362 -4.357644,-10.15108 -0.02315,-0.29874 -0.07356,-0.58924 -0.189663,-0.86689 0,-0.29752 0,-0.59544 0,-0.89294 0.109483,-0.27849 0.172291,-0.5669 0.188424,-0.86606 0.04793,-0.89417 0.199566,-1.77139 0.400386,-2.64242 1.376764,-5.97238 6.006671,-10.82045 11.913375,-12.4712 1.132989,-0.31692 2.285813,-0.51732 3.458887,-0.60573 0.144209,-0.0107 0.299985,0.0139 0.422703,-0.0971 z m 1.002016,86.08468 c 0.625169,-0.0574 1.25447,-0.0863 1.874684,-0.17725 2.60935,-0.3841 4.861709,-1.51392 6.678546,-3.41664 2.806038,-2.93832 3.891512,-6.45826 3.158086,-10.45242 -0.713597,-3.88409 -2.927517,-6.71404 -6.453357,-8.475 -2.305237,-1.15121 -4.762953,-1.4319 -7.299583,-1.02632 -2.568041,0.41048 -4.779484,1.54118 -6.57359,3.41664 -2.672581,2.794 -3.742359,6.14222 -3.226272,9.97042 0.361967,2.68452 1.559419,4.97115 3.516743,6.83823 2.323013,2.21591 5.116657,3.28207 8.324743,3.32234 z m 57.101359,-0.0338 c 1.334153,0.004 2.636495,-0.18844 3.902976,-0.61511 5.563715,-1.87179 9.01359,-7.58769 7.823695,-13.56771 -0.774004,-3.88747 -3.460331,-7.14026 -7.134018,-8.62165 -2.122616,-0.85519 -4.319161,-1.07338 -6.575294,-0.71472 -2.586194,0.41119 -4.81504,1.54188 -6.614354,3.43853 -2.771879,2.91902 -3.813146,6.39981 -3.145846,10.36672 0.419441,2.49099 1.576941,4.62096 3.393223,6.37156 2.32475,2.24161 5.12654,3.32705 8.349618,3.34238 z m -0.05343,34.23774 c -0.854452,0.0117 -1.759606,0.0828 -2.650925,0.28514 -6.195259,1.40771 -10.166345,7.38347 -9.052047,13.6204 0.568098,3.18023 2.178106,5.73008 4.810838,7.59296 2.870104,2.03005 6.074195,2.60452 9.495906,1.9183 5.960184,-1.19497 10.227964,-6.91524 9.275347,-13.32303 -0.452745,-3.04733 -1.897037,-5.54731 -4.286173,-7.48134 -2.190225,-1.77444 -4.723278,-2.6091 -7.592946,-2.61243 z M 30.113789,246.6399 c 1.94493,0.0182 3.812599,-0.41031 5.563315,-1.32263 4.516689,-2.35235 7.010347,-7.24464 6.239322,-12.30882 -0.426014,-2.79943 -1.711477,-5.16294 -3.830777,-7.04671 -1.980462,-1.76106 -4.304712,-2.73662 -6.95209,-2.94654 -1.911457,-0.15162 -3.761764,0.0934 -5.545955,0.80244 -4.56586,1.81396 -7.628501,6.35543 -7.426448,11.4349 0.07355,1.85072 0.538398,3.58988 1.420996,5.21582 1.995343,3.67788 5.923632,6.21161 10.531637,6.17154 z m 57.105847,0.0108 c 1.1032,-0.006 2.18262,-0.13346 3.244561,-0.41981 5.638462,-1.5214 9.504423,-7.05125 8.586583,-13.1786 -0.456077,-3.0457 -1.900705,-5.54389 -4.292171,-7.47725 -1.878608,-1.51811 -4.03708,-2.35897 -6.448606,-2.55729 -1.465614,-0.12025 -2.907959,-0.009 -4.326453,0.37724 -5.613472,1.53049 -9.311926,6.94837 -8.617414,12.80258 0.22061,1.85775 0.815773,3.58079 1.867235,5.12369 2.395895,3.51343 5.760943,5.23813 9.986265,5.32944 z m 57.595134,57.08581 c 1.03341,-0.009 1.95517,-0.081 2.86298,-0.28685 6.20928,-1.41118 10.27169,-7.4364 9.00827,-13.81506 -0.80463,-4.06248 -3.18781,-6.9466 -6.97851,-8.62592 -1.83428,-0.81266 -3.7735,-1.06469 -5.77284,-0.90655 -1.60531,0.12757 -3.12256,0.54789 -4.54937,1.28894 -4.58111,2.37587 -7.04828,7.40991 -6.22397,12.40499 0.42916,2.60073 1.58379,4.82746 3.48727,6.64453 2.30913,2.20297 5.08647,3.26934 8.16617,3.29592 z M 30.155937,337.97384 c -1.095807,0.008 -2.177157,0.12073 -3.239899,0.40373 -5.618282,1.49787 -9.659781,7.04773 -8.594974,13.44535 0.510721,3.06989 2.056085,5.55877 4.534456,7.44418 1.793701,1.36377 3.827476,2.13164 6.077339,2.33313 1.516038,0.13506 3.006862,0.0232 4.472894,-0.3838 5.570755,-1.54211 9.448638,-7.01556 8.504472,-13.2376 -0.416498,-2.74574 -1.679242,-5.07041 -3.741522,-6.93569 -2.2697,-2.05233 -4.958394,-3.04679 -8.012766,-3.0693 z m 114.789333,0.003 c -0.39658,0.0183 -0.79334,0.0306 -1.18912,0.055 -0.19804,0.0135 -0.3947,0.0467 -0.59008,0.0752 -2.95649,0.43049 -5.42776,1.77217 -7.34498,4.05419 -2.32107,2.76257 -3.20856,5.96365 -2.65598,9.53245 0.45651,2.95208 1.87489,5.38026 4.17397,7.27723 1.86368,1.53781 4.01222,2.40129 6.42197,2.62563 1.51598,0.14127 3.00809,0.0321 4.47369,-0.37179 4.85673,-1.33463 8.18316,-5.54565 8.61935,-10.24631 0.16083,-1.72542 -0.032,-3.40047 -0.58954,-5.03485 -1.50985,-4.42455 -5.75221,-7.98385 -11.31928,-7.96681 z m 0.0183,-115.00672 c -0.79529,0 -1.71585,0.093 -2.5122,0.25453 -6.18059,1.25365 -10.45301,7.24711 -9.24037,13.78848 0.74783,4.0324 3.53994,7.35991 7.35585,8.83214 2.02132,0.7797 4.10969,0.96649 6.2437,0.65945 2.6462,-0.38053 4.91973,-1.52924 6.76172,-3.45847 2.53302,-2.65109 3.61382,-5.82776 3.2692,-9.48334 -0.14131,-1.50033 -0.57836,-2.91389 -1.27502,-4.2481 -1.84797,-3.53866 -5.62793,-6.33975 -10.6029,-6.34471 z"
       id="path2"
       style="clip-rule:evenodd;fill:#8bc34a;fill-opacity:1;fill-rule:evenodd;stroke-width:0.41319919" /></g><g
     inkscape:groupmode="layer"
     id="layer2"
     inkscape:label="Layer 2"
     style="display:inline"
     transform="translate(0,-195)" /></svg>