<?xml version="1.0" encoding="UTF-8" standalone="no"?>
<!-- Generator: Adobe Illustrator 16.0.0, SVG Export Plug-In . SVG Version: 6.00 Build 0)  -->

<svg
   xmlns:dc="http://purl.org/dc/elements/1.1/"
   xmlns:cc="http://creativecommons.org/ns#"
   xmlns:rdf="http://www.w3.org/1999/02/22-rdf-syntax-ns#"
   xmlns:svg="http://www.w3.org/2000/svg"
   xmlns="http://www.w3.org/2000/svg"
   xmlns:sodipodi="http://sodipodi.sourceforge.net/DTD/sodipodi-0.dtd"
   xmlns:inkscape="http://www.inkscape.org/namespaces/inkscape"
   version="1.1"
   id="Layer_1"
   x="0px"
   y="0px"
   width="558"
   height="558"
   viewBox="0 0 558 558"
   enable-background="new 0 0 375 375"
   xml:space="preserve"
   sodipodi:docname="UELogo_558x558.svg"
   inkscape:export-filename="/home/brandon/Pictures/UnlockEdThemeImages/UELogo_558x558.png"
   inkscape:export-xdpi="96"
   inkscape:export-ydpi="96"
   inkscape:version="0.92.2 5c3e80d, 2017-08-06"><metadata
     id="metadata9"><rdf:RDF><cc:Work
         rdf:about=""><dc:format>image/svg+xml</dc:format><dc:type
           rdf:resource="http://purl.org/dc/dcmitype/StillImage" /><dc:title></dc:title></cc:Work></rdf:RDF></metadata><defs
     id="defs7" /><sodipodi:namedview
     pagecolor="#ffffff"
     bordercolor="#666666"
     borderopacity="1"
     objecttolerance="10"
     gridtolerance="10"
     guidetolerance="10"
     inkscape:pageopacity="0"
     inkscape:pageshadow="2"
     inkscape:window-width="1920"
     inkscape:window-height="1043"
     id="namedview5"
     showgrid="false"
     inkscape:zoom="0.62933333"
     inkscape:cx="-183.52754"
     inkscape:cy="187.5"
     inkscape:window-x="1366"
     inkscape:window-y="0"
     inkscape:window-maximized="1"
     inkscape:current-layer="layer2" /><g
     inkscape:groupmode="layer"
     id="layer1"
     inkscape:label="Layer 1"
     transform="translate(0,183)"
     sodipodi:insensitive="true"><path
       inkscape:connector-curvature="0"
       d="m 161.99446,-53.45837 c 1.26207,0 2.52495,0 3.78784,0 0.28793,0.06406 0.57252,0.147596 0.86376,0.185951 1.08615,0.138561 2.18143,0.22236 3.26177,0.397407 6.85043,1.114405 12.84376,4.029308 17.87123,8.802883 6.74176,6.403203 10.3197,14.293318 10.74439,23.594877 0.19262,4.226746 -0.38331,8.350656 -1.72828,12.363336 -3.88575,11.59742 -13.69594,20.235094 -25.69914,22.639033 -0.28625,0.05782 -0.56588,0.14338 -0.90277,0.229065 0,0.485062 0,0.915001 0,1.344255 0,11.66435 0,23.327696 0,34.992349 0,3.19019 -0.003,6.37971 0.004,9.57039 8.5e-4,0.35846 -0.077,0.73015 0.12613,1.11934 0.26137,0.0689 0.5468,0.15021 0.83722,0.20906 6.9384,1.4268 12.94663,4.62093 17.80318,9.766823 8.00035,8.47537 10.94679,18.58166 9.02595,30.030241 -1.21878,7.26467 -4.65148,13.45377 -9.9702,18.55421 -4.77108,4.5772 -10.43166,7.49362 -16.9079,8.82443 -0.28707,0.0616 -0.56836,0.13957 -0.8704,0.21327 0,16.24597 0,32.42383 0,48.57289 0.25556,0.26008 0.56588,0.25757 0.85631,0.31657 7.14665,1.47445 13.24701,4.84337 18.24212,10.16264 4.3803,4.66498 7.1948,10.15881 8.51991,16.41643 0.0545,0.25496 0.0373,0.53785 0.38999,0.77332 0.33182,0 0.76161,0 1.19153,0 14.58866,0 29.17659,0 43.76495,-7.2e-4 0.29956,0 0.59919,0.018 0.89734,-0.01 0.1864,-0.0161 0.36895,-0.0879 0.50519,-0.11849 0.33452,-1.28699 0.60412,-2.52165 0.98057,-3.72235 0.37836,-1.20233 0.81601,-2.39002 1.31366,-3.54644 0.48519,-1.1255 1.03403,-2.23053 1.63968,-3.29822 0.624,-1.09478 1.30577,-2.16223 2.04589,-3.18287 0.73882,-1.02063 1.54007,-2.00226 2.38842,-2.93498 0.84795,-0.93261 1.7509,-1.82314 2.69552,-2.65612 0.94459,-0.83405 1.94084,-1.61899 2.9733,-2.34244 1.03135,-0.72275 2.10913,-1.38874 3.21365,-1.99699 1.0742,-0.58939 2.18805,-1.12215 3.32204,-1.58901 1.16333,-0.47868 2.3609,-0.89108 3.56719,-1.25281 1.20156,-0.36011 2.43277,-0.62028 3.66495,-0.92817 0,-16.23404 0,-32.41216 0,-48.61347 -0.48449,-0.29377 -1.03448,-0.29607 -1.54386,-0.40722 -10.25777,-2.25118 -19.04479,-9.24258 -23.49235,-18.71115 -2.79684,-5.9548 -3.77456,-12.2048 -3.0558,-18.733201 0.45618,-4.14041 1.65518,-8.05545 3.55973,-11.75529 4.8082,-9.34442 13.65615,-15.887843 23.69867,-17.848813 0.28123,-0.0569 0.55406,-0.16145 0.87695,-0.25855 0,-0.44481 0,-0.84051 0,-1.23573 0,-14.821656 0,-29.64367 0,-44.463938 0,-0.199205 0.009,-0.399072 -0.003,-0.597294 -0.0161,-0.223442 -0.0469,-0.444999 -0.0733,-0.679848 -0.26643,-0.07449 -0.48548,-0.147797 -0.70916,-0.19318 -7.26479,-1.46225 -13.44827,-4.88328 -18.47978,-10.316462 -5.33306,-5.757654 -8.31334,-12.594831 -8.98566,-20.40446 -0.33027,-3.826829 -0.0199,-7.623797 0.91871,-11.370944 2.83522,-11.344417 11.5114,-20.607762 22.66305,-24.150804 2.64018,-0.839734 5.33934,-1.351683 8.09821,-1.568259 0.3239,-0.02551 0.63975,-0.124503 0.96092,-0.189968 1.26295,0 2.5251,0 3.78863,0 0.27996,0.2373 0.62737,0.174304 0.95027,0.200812 1.95646,0.156031 3.89002,0.451364 5.79306,0.931807 12.77366,3.216119 22.44097,13.25034 25.17518,26.122292 0.0616,0.282944 0.16224,0.556791 0.26209,0.887849 0.40132,0 0.76309,0 1.12581,0 15.1158,0 30.23064,0 45.34533,0 0.20002,0 0.40008,0.01206 0.59813,-0.006 0.22262,-0.01807 0.44156,-0.06165 0.65501,-0.09298 0.092,-0.375056 0.1749,-0.695331 0.24527,-1.019783 2.45029,-11.373434 10.63766,-20.799416 21.54356,-24.798824 3.04279,-1.11601 6.18173,-1.784794 9.41304,-2.029603 0.32256,-0.02469 0.67103,0.03494 0.95417,-0.198401 1.2622,0 2.52578,0 3.78794,0 0.28357,0.229046 0.63134,0.170889 0.95591,0.194183 1.593,0.114463 3.17349,0.318609 4.73026,0.673745 9.81091,2.238688 17.34342,7.656147 22.44558,16.337039 2.68093,4.561137 4.27752,9.48988 4.40453,14.832657 0.01,0.28957 0.10684,0.576671 0.16487,0.864595 0,0.996528 0,1.993076 0,2.990447 -0.23624,0.324431 -0.16487,0.701958 -0.17068,1.05876 -0.0236,1.298549 -0.14358,2.582198 -0.40026,3.858357 -1.90012,9.50233 -6.88351,16.95849 -14.95208,22.298155 -5.63242,3.72813 -11.88633,5.48453 -18.64089,5.538388 -4.6072,0.03815 -9.0596,-0.683645 -13.35349,-2.366426 -10.61404,-4.159534 -18.48004,-13.407155 -20.88954,-24.558211 -0.0762,-0.347685 -0.18093,-0.688703 -0.26406,-1.002351 -1.01236,-0.127716 -46.91072,-0.11366 -47.73824,0.01004 -0.31077,1.196497 -0.58058,2.425365 -0.95387,3.623528 -0.37458,1.20232 -0.79996,2.395503 -1.29484,3.553825 -0.49504,1.158344 -1.05781,2.292608 -1.67751,3.387875 -0.62154,1.096954 -1.30751,2.162361 -2.04473,3.182966 -0.73825,1.020586 -1.53837,2.005488 -2.38129,2.939804 -0.82279,0.911043 -1.70188,1.778971 -2.61854,2.592078 -0.94451,0.835518 -1.93438,1.626375 -2.9632,2.3549 -1.02793,0.725893 -2.1016,1.40058 -3.20452,2.010527 -1.10172,0.608158 -2.24543,1.15563 -3.40672,1.63786 -1.16328,0.483755 -2.36106,0.895118 -3.56634,1.258588 -1.19806,0.361902 -2.42768,0.623219 -3.61886,0.92281 -0.15683,1.124324 -0.22125,36.064399 -0.093,46.202349 0.004,0.26045 0.0383,0.5201 0.0579,0.82049 0.31219,0.0815 0.59181,0.17109 0.8795,0.22828 1.43486,0.28768 2.84371,0.6685 4.22761,1.13764 11.50974,3.90394 20.00861,13.635893 22.43517,25.293343 0.0597,0.28447 0.15924,0.55821 0.25883,0.89262 0.43241,0 0.82533,0 1.22207,0 15.08515,0 30.17012,0 45.25478,0 0.20021,-7.1e-4 0.40022,0.0141 0.59831,-0.004 0.22173,-0.0202 0.44068,-0.0626 0.65466,-0.0916 0.087,-0.34326 0.16707,-0.6306 0.22917,-0.92198 2.2685,-10.75652 9.8017,-20.022483 20.28664,-24.372943 4.13023,-1.71355 8.43353,-2.56384 12.90433,-2.61042 2.76455,-0.0313 5.51506,0.13453 8.21771,0.74755 9.62525,2.18712 17.07124,7.46775 22.19117,15.910413 2.83244,4.67162 4.51869,9.74252 4.65248,15.26291 0.01,0.28868 0.10683,0.57554 0.16487,0.86371 0,0.99661 0,1.99278 0,2.99004 -0.22154,0.29045 -0.1725,0.63508 -0.17089,0.957651 0.018,2.00979 -0.34601,3.96527 -0.82711,5.90382 -3.65263,14.73081 -16.76689,25.41641 -32.0881,25.84989 -3.13155,0.0888 -6.23677,-0.0994 -9.3099,-0.7782 -12.71614,-2.81101 -22.73723,-12.60569 -25.81196,-25.26761 -0.1478,-0.60652 -0.28955,-1.21609 -0.44895,-1.88583 -0.42404,-0.012 -0.8176,-0.03 -1.21086,-0.03 -10.56858,-7.2e-4 -21.13597,-7.2e-4 -31.70474,-7.2e-4 -4.58461,0 -9.17217,-0.002 -13.75668,0.004 -0.36012,0 -0.73104,-0.0781 -1.13471,0.13014 -0.39455,1.88299 -0.88743,3.77481 -1.57522,5.61245 -0.70167,1.87118 -1.55413,3.66822 -2.56608,5.39195 -0.99691,1.69338 -2.12916,3.29058 -3.40079,4.78818 -1.29341,1.52441 -2.70942,2.92348 -4.24792,4.19945 -1.51388,1.25461 -3.12067,2.37299 -4.82588,3.34924 -1.7353,0.98904 -3.54399,1.81592 -5.42027,2.50217 -1.83993,0.67477 -3.74541,1.10945 -5.60565,1.52932 -0.0546,0.13796 -0.0915,0.19761 -0.0965,0.26237 -0.0161,0.19759 -0.0235,0.39732 -0.0235,0.5967 0.009,15.8846 0.0181,31.76857 0.0271,47.65434 0,0.0315 0.0234,0.0642 0.0397,0.0934 0.0161,0.0311 0.0355,0.0551 0.10687,0.1757 6.90431,1.28374 12.97835,4.37274 18.03041,9.37689 5.05769,5.00582 8.20055,11.05258 9.56997,18.02243 0.18294,0.0384 0.31082,0.0881 0.43716,0.0881 15.68552,0 31.37134,-0.002 47.05705,-0.008 0.094,0 0.18655,-0.0597 0.32243,-0.10201 0.0879,-0.3707 0.1753,-0.7548 0.26219,-1.13937 1.50189,-6.58618 4.62176,-12.28255 9.4651,-16.99545 5.67315,-5.52207 12.46378,-8.72351 20.34637,-9.55333 3.79033,-0.39903 7.57334,-0.30286 11.3055,0.49573 8.50433,1.8205 15.42428,6.18885 20.59184,13.1861 3.95876,5.36063 6.29719,11.35634 6.50284,18.09198 0.008,0.25503 0.10723,0.50692 0.16265,0.75926 0,0.99674 0,1.99333 0,2.99118 -0.22493,0.36349 -0.16827,0.77286 -0.17249,1.16545 -0.014,1.09848 -0.094,2.19125 -0.29054,3.27088 -1.38459,7.64275 -4.88386,14.1452 -10.61505,19.38995 -5.81458,5.32214 -12.70099,8.23477 -20.54936,8.88253 -0.42764,0.0385 -0.84918,0.12611 -1.27481,0.19017 -1.12837,0 -2.2593,0 -3.39037,0 -0.35746,-0.0616 -0.71278,-0.15021 -1.07207,-0.17632 -1.82435,-0.13755 -3.62746,-0.41331 -5.41256,-0.82007 -12.77398,-2.90838 -22.89618,-13.19117 -25.63155,-26.04357 -0.0753,-0.34652 -0.18515,-0.68592 -0.26807,-0.99822 -1.11356,-0.12029 -46.95602,-0.0992 -47.74893,0.0217 -0.0717,0.26963 -0.15522,0.55391 -0.21989,0.8431 -1.89797,8.61119 -6.41417,15.52267 -13.54686,20.69041 -5.17993,3.75374 -11.01247,5.79502 -17.38711,6.29795 -0.39333,0.0332 -0.78083,0.1235 -1.17171,0.18836 -1.12965,0 -2.26049,0 -3.38953,0 -0.39162,-0.0637 -0.78162,-0.13394 -1.1748,-0.18435 -1.25144,-0.15944 -2.51671,-0.24325 -3.75309,-0.47612 -7.77754,-1.47124 -14.32188,-5.15183 -19.56053,-11.09103 -3.97571,-4.50583 -6.53226,-9.73484 -7.77727,-15.60962 -0.0497,-0.22162 -0.11132,-0.43828 -0.17102,-0.67389 -0.42643,-0.1253 -0.82595,-0.0777 -1.21666,-0.0777 -14.7214,-0.004 -29.44147,-0.003 -44.16168,-0.003 -0.19933,0 -0.39923,-0.008 -0.59831,0.003 -0.19008,0.014 -0.3793,0.0425 -0.59005,0.065 -0.0699,0.26965 -0.13433,0.48922 -0.18173,0.71279 -2.28585,10.6686 -9.12715,19.34284 -18.93651,23.98924 -3.79362,1.79703 -7.79469,2.81589 -11.97417,3.15319 -0.39247,0.0351 -0.77916,0.12611 -1.16914,0.19177 -1.19565,0 -2.39216,0 -3.58865,0 -0.32361,-0.0616 -0.64472,-0.13473 -0.97083,-0.17631 -1.08533,-0.13795 -2.17892,-0.2245 -3.25676,-0.4003 -7.23298,-1.19302 -13.47359,-4.37688 -18.62716,-9.57287 -5.92777,-5.97677 -9.21857,-13.20623 -9.86912,-21.6163 -0.0417,-0.53305 -0.11034,-1.05567 -0.37668,-1.5335 0,-0.66465 0,-1.32921 0,-1.99339 0.24228,-0.55555 0.34186,-1.13829 0.38333,-1.74076 0.044,-0.62902 0.11284,-1.25779 0.19003,-1.88323 0.52856,-4.23515 1.8022,-8.24269 3.8982,-11.9521 5.1793,-9.16934 12.94743,-14.85993 23.24137,-17.09757 0.28628,-0.064 0.6024,-0.0436 0.88202,-0.36445 0.007,-0.39188 0.0189,-0.85145 0.0189,-1.31259 7.7e-4,-15.25073 0,-30.50275 0,-45.75359 0,-0.26566 0.0111,-0.53273 -0.005,-0.79708 -0.0127,-0.22529 -0.0562,-0.44565 -0.0812,-0.63067 -0.11615,-0.0645 -0.17094,-0.10864 -0.23236,-0.1233 -0.1925,-0.0504 -0.38913,-0.0835 -0.58329,-0.12531 -10.25741,-2.22719 -18.01143,-7.88852 -23.19081,-17.0117 -2.44515,-4.30865 -3.78849,-8.9754 -4.13948,-13.92051 -0.0425,-0.602711 -0.14934,-1.184261 -0.38169,-1.740861 0,-0.59892 0,-1.19555 0,-1.79461 0.19994,-0.59409 0.35345,-1.19316 0.38665,-1.82806 0.10123,-1.92828 0.4323,-3.82534 0.90277,-5.694 3.30906,-13.16053 13.89419,-22.735273 26.44341,-25.196363 0.28461,-0.057 0.5617,-0.15342 0.81649,-0.22535 0.0317,-0.16708 0.0666,-0.26491 0.0666,-0.36256 0.006,-15.044278 0.0101,-30.089455 0.0127,-45.134491 0,-0.431685 -0.0172,-0.863169 -0.0279,-1.294352 -7.7e-4,-0.03334 -0.0119,-0.06848 -0.0247,-0.09539 -0.0135,-0.03052 -0.0358,-0.05502 -0.0996,-0.145187 -0.19171,-0.05242 -0.43981,-0.133745 -0.69373,-0.185956 -7.36482,-1.504035 -13.60952,-5.007898 -18.65026,-10.573075 -5.23583,-5.780907 -8.1458,-12.598164 -8.75066,-20.384559 -0.0465,-0.599905 -0.14772,-1.183264 -0.38087,-1.740817 0,-0.597455 0,-1.195713 0,-1.793129 0.21985,-0.55924 0.34598,-1.138401 0.37838,-1.73915 0.0962,-1.795598 0.40075,-3.557158 0.80402,-5.306288 2.76471,-11.99324 12.0621,-21.728734 23.92346,-25.043634 2.27517,-0.636411 4.59018,-1.038839 6.94585,-1.216377 0.28958,-0.0215 0.6024,0.02792 0.84884,-0.194987 z m 2.01217,172.86814 c 1.25541,-0.11527 2.51912,-0.1733 3.76459,-0.35593 5.23987,-0.77133 9.76288,-3.04014 13.4113,-6.86102 5.63486,-5.90049 7.81461,-12.96895 6.34181,-20.989691 -1.43298,-7.79971 -5.8788,-13.48258 -12.9591,-17.01879 -4.62919,-2.31177 -9.56457,-2.87543 -14.65842,-2.06097 -5.15693,0.82429 -9.59777,3.09487 -13.20054,6.86101 -5.36686,5.61067 -7.5151,12.33431 -6.47874,20.021781 0.72688,5.39082 3.1315,9.98265 7.06204,13.73197 4.66488,4.44981 10.27485,6.59078 16.71706,6.67164 z m 114.66623,-0.0679 c 2.67913,0.008 5.29438,-0.37842 7.83764,-1.23522 11.17258,-3.75877 18.10034,-15.23696 15.71089,-27.245551 -1.55428,-7.8065 -6.94875,-14.33848 -14.32594,-17.31328 -4.26247,-1.71732 -8.67339,-2.15548 -13.20397,-1.43525 -5.19337,0.82572 -9.66916,3.09628 -13.2824,6.90498 -5.56625,5.86173 -7.65724,12.85157 -6.31722,20.817581 0.84228,5.0022 3.16668,9.27943 6.81399,12.79484 4.66836,4.50142 10.29469,6.68112 16.76701,6.7119 z m -0.10729,68.75338 c -1.71584,0.0236 -3.53351,0.16629 -5.32337,0.57261 -12.44082,2.82685 -20.41522,14.82688 -18.17758,27.35136 1.1408,6.38627 4.37389,11.50667 9.66073,15.24756 5.76351,4.07657 12.1977,5.23017 19.0689,3.85217 11.96874,-2.39965 20.53894,-13.88662 18.62598,-26.75421 -0.90917,-6.1194 -3.80947,-11.13965 -8.60714,-15.02341 -4.39823,-3.56329 -9.4849,-5.23938 -15.24752,-5.24608 z M 163.98505,4.684921 c 3.90565,0.03654 7.65614,-0.823951 11.17179,-2.655998 9.07004,-4.723794 14.0776,-14.548087 12.5293,-24.717554 -0.85549,-5.621584 -3.43686,-10.367789 -7.69266,-14.15062 -3.977,-3.536415 -8.64436,-5.495454 -13.96061,-5.916997 -3.83843,-0.304472 -7.55406,0.187557 -11.13693,1.611392 -9.16878,3.642645 -15.31893,12.762449 -14.91318,22.962621 0.1477,3.716464 1.08116,7.208901 2.85352,10.473978 4.00689,7.385616 11.89535,12.473642 21.14877,12.393178 z m 114.67523,0.02169 c 2.21537,-0.01205 4.38297,-0.268005 6.51547,-0.843027 11.32269,-3.055151 19.08599,-14.159739 17.24288,-26.464176 -0.91587,-6.116123 -3.81686,-11.132783 -8.6192,-15.015196 -3.77246,-3.048543 -8.10692,-4.737087 -12.94954,-5.135339 -2.94314,-0.241475 -5.83953,-0.01807 -8.68804,0.757542 -11.27251,3.073404 -18.69943,13.953143 -17.30477,25.709083 0.44301,3.730581 1.63817,7.190647 3.74962,10.288971 4.81124,7.055381 11.56865,10.518781 20.05358,10.702142 z m 115.6578,114.635019 c 2.07521,-0.0181 3.92621,-0.16267 5.74919,-0.57604 12.46898,-2.83382 20.62677,-14.93316 18.08967,-27.742261 -1.61578,-8.15794 -6.4015,-13.94959 -14.01367,-17.32186 -3.68345,-1.63192 -7.57762,-2.13802 -11.59254,-1.82046 -3.22364,0.25617 -6.27046,1.10022 -9.13566,2.58834 -9.19942,4.77102 -14.15377,14.87997 -12.49847,24.910681 0.86181,5.22256 3.18044,9.69411 7.00286,13.34299 4.637,4.42382 10.21422,6.56522 16.39862,6.61861 z M 164.06969,188.0942 c -2.20051,0.0161 -4.37199,0.24244 -6.5061,0.81074 -11.28217,3.00789 -19.39798,14.15266 -17.25971,26.99983 1.02558,6.1647 4.12885,11.16266 9.10571,14.94878 3.60196,2.73861 7.68603,4.28059 12.20402,4.68519 3.04438,0.27123 6.03813,0.0466 8.98209,-0.7707 11.18673,-3.09674 18.97397,-14.08806 17.07798,-26.58265 -0.83639,-5.51377 -3.37211,-10.18199 -7.51342,-13.92768 -4.55782,-4.12132 -9.95703,-6.11832 -16.09057,-6.16351 z m 230.51045,0.006 c -0.79638,0.0367 -1.59313,0.0614 -2.3879,0.11045 -0.39768,0.0271 -0.7926,0.0938 -1.18495,0.151 -5.93698,0.86448 -10.89957,3.55873 -14.74958,8.14129 -4.66098,5.54758 -6.44316,11.97573 -5.33352,19.14229 0.91673,5.92812 3.765,10.80419 8.38183,14.61352 3.74249,3.08811 8.05701,4.82208 12.89606,5.27259 3.04428,0.28367 6.0406,0.0645 8.9837,-0.74661 9.75288,-2.68009 16.43274,-11.13632 17.30868,-20.57578 0.32296,-3.46485 -0.0642,-6.82856 -1.18389,-10.11058 -3.03195,-8.88501 -11.5511,-16.0325 -22.73043,-15.9983 z m 0.0367,-230.946993 c -1.59704,0 -3.44564,0.186755 -5.0448,0.511126 -12.41135,2.517475 -20.99086,14.553046 -18.55574,27.688885 1.50172,8.097532 7.10861,14.779564 14.77141,17.735974 4.05904,1.565729 8.25274,1.940825 12.53808,1.324253 5.31388,-0.764149 9.8794,-3.070894 13.57832,-6.945014 5.08661,-5.323699 7.25698,-11.702825 6.56495,-19.04366 -0.28377,-3.012838 -1.16143,-5.851432 -2.5604,-8.530682 -3.7109,-7.105753 -11.3015,-12.730669 -21.29183,-12.740629 z"
       id="path2"
       style="clip-rule:evenodd;fill:#8bc34a;fill-opacity:1;fill-rule:evenodd;stroke-width:0.82975245" /></g><g
     inkscape:groupmode="layer"
     id="layer2"
     inkscape:label="Layer 2"
     style="display:inline"
     transform="translate(0,183)" /></svg>