<?xml version="1.0" standalone="no"?>
<!DOCTYPE svg PUBLIC "-//W3C//DTD SVG 20010904//EN"
 "http://www.w3.org/TR/2001/REC-SVG-20010904/DTD/svg10.dtd">
<svg version="1.0" xmlns="http://www.w3.org/2000/svg"
 width="260.000000pt" height="260.000000pt" viewBox="0 0 260.000000 260.000000"
 preserveAspectRatio="xMidYMid meet">
<metadata>
Created by potrace 1.14, written by Peter Selinger 2001-2017
</metadata>
<g transform="translate(0.000000,260.000000) scale(0.100000,-0.100000)"
fill="#000000" stroke="none">
<path d="M200 2585 c-7 -8 -16 -12 -21 -9 -5 3 -9 0 -9 -5 0 -6 -6 -11 -14
-11 -8 0 -22 -10 -30 -22 -9 -12 -16 -18 -16 -13 0 5 -8 0 -18 -11 -27 -30
-64 -84 -57 -84 4 0 0 -7 -9 -15 -8 -9 -12 -23 -9 -32 4 -10 2 -14 -5 -10 -16
11 -13 -132 4 -165 8 -15 15 -31 15 -35 8 -50 130 -163 178 -163 27 0 40 -14
46 -49 4 -25 3 -31 -7 -25 -10 6 -10 4 0 -8 8 -10 9 -19 4 -22 -6 -3 -7 -21
-2 -41 4 -20 4 -38 -1 -41 -5 -3 -5 -13 1 -24 13 -25 13 -33 -2 -24 -10 6 -10
4 0 -8 8 -10 9 -19 4 -22 -6 -3 -7 -21 -2 -41 4 -19 4 -37 0 -40 -5 -3 -5 -19
0 -35 8 -29 3 -35 -22 -31 -5 0 -8 -3 -8 -8 0 -6 -9 -8 -19 -6 -11 2 -22 -3
-25 -11 -3 -8 -12 -14 -20 -14 -22 0 -117 -95 -119 -119 -1 -12 -5 -21 -9 -21
-4 0 -8 -7 -8 -16 0 -8 -4 -13 -8 -10 -5 3 -9 -35 -10 -85 0 -63 2 -87 10 -83
7 5 9 1 5 -9 -3 -9 -2 -19 3 -22 6 -4 10 -13 10 -21 0 -15 9 -28 46 -69 12
-13 19 -26 16 -29 -3 -3 0 -6 6 -6 19 0 24 -3 49 -28 13 -13 27 -21 32 -17 5
3 12 1 16 -5 3 -5 15 -10 26 -10 10 0 19 -5 19 -11 0 -5 4 -8 8 -5 10 6 10
-40 0 -49 -3 -3 -2 -22 2 -41 4 -19 4 -37 -1 -40 -5 -3 -5 -13 1 -24 13 -25
13 -33 -2 -24 -10 6 -10 4 0 -8 8 -10 9 -19 4 -22 -6 -3 -7 -21 -2 -41 4 -19
4 -37 -1 -40 -4 -3 -6 -11 -4 -18 11 -30 13 -67 4 -67 -6 0 -8 -4 -5 -9 7 -10
-17 -21 -45 -21 -10 0 -19 -4 -19 -10 0 -5 -6 -10 -13 -10 -14 0 -114 -80
-101 -80 5 0 2 -6 -6 -13 -35 -29 -57 -100 -57 -184 1 -49 5 -79 11 -76 5 4 7
-3 4 -15 -4 -12 -2 -20 2 -17 4 3 13 -9 19 -25 5 -17 15 -30 20 -30 6 0 11 -5
11 -11 0 -7 11 -22 24 -34 31 -29 96 -69 96 -59 0 4 8 0 18 -9 13 -12 37 -15
99 -15 45 1 80 5 77 10 -3 4 6 8 20 8 14 0 26 5 26 11 0 5 4 8 9 5 16 -10 105
73 123 115 7 16 16 29 20 29 5 0 8 11 8 25 0 14 7 28 15 31 8 4 13 10 10 14
-6 10 15 7 34 -4 9 -6 12 -5 8 1 -6 10 135 9 152 -2 5 -3 13 -1 16 5 5 8 12 7
23 -2 12 -10 14 -10 8 0 -9 15 -1 15 24 2 13 -7 21 -7 25 0 5 8 12 7 23 -2 10
-9 13 -9 9 -1 -12 19 46 10 65 -10 9 -10 15 -27 13 -37 -2 -10 3 -21 11 -24 9
-3 13 -10 10 -14 -3 -5 8 -23 24 -41 17 -18 30 -37 30 -42 0 -6 4 -8 9 -5 5 3
11 -1 15 -9 3 -8 12 -15 19 -15 8 0 20 -7 27 -15 6 -8 15 -14 18 -13 22 2 42
-3 38 -11 -3 -4 31 -8 77 -8 71 0 89 4 139 30 32 16 58 33 58 38 0 5 8 9 17 9
9 0 14 3 10 6 -3 3 5 18 18 32 13 15 24 31 24 36 -1 5 4 12 11 16 6 4 12 17
13 28 1 12 5 22 10 22 4 0 5 5 2 10 -3 6 1 13 10 16 23 9 116 11 147 2 16 -3
30 -2 34 3 3 6 12 5 22 -3 12 -10 14 -10 8 0 -9 15 -1 15 24 2 13 -7 21 -7 25
0 5 8 12 7 23 -2 9 -7 13 -8 9 -2 -5 9 8 11 45 7 59 -5 61 -6 65 -34 2 -11 10
-33 18 -49 16 -31 95 -126 95 -114 0 4 8 0 18 -9 10 -10 22 -14 25 -11 4 4 9
-1 13 -10 3 -9 10 -13 15 -10 6 3 15 1 22 -4 29 -24 227 3 227 31 0 4 4 6 8 3
16 -10 92 72 120 129 32 64 45 185 20 185 -8 0 -9 3 -3 8 12 9 19 36 7 28 -5
-3 -14 12 -22 32 -7 20 -18 42 -25 48 -6 7 -22 25 -36 41 -14 16 -39 36 -56
43 -17 8 -30 17 -28 20 2 3 -8 7 -22 8 -14 1 -33 8 -41 15 -13 10 -14 9 -7 -3
7 -12 6 -13 -6 -4 -23 18 -156 5 -169 -16 -4 -6 -10 -11 -14 -11 -18 3 -27 -3
-68 -41 -38 -37 -97 -118 -91 -125 7 -8 -11 -62 -18 -57 -5 3 -9 2 -9 -3 0
-10 -81 -10 -97 0 -7 5 -13 4 -13 -2 0 -10 -32 -7 -52 5 -8 5 -9 2 -5 -10 6
-14 3 -15 -13 -6 -11 6 -20 8 -20 4 0 -3 -7 -1 -15 6 -8 7 -15 8 -15 3 0 -5
-9 -9 -20 -10 -11 -1 -20 4 -20 10 0 8 -3 8 -8 2 -10 -14 -52 -17 -52 -4 0 8
-5 7 -16 -2 -18 -15 -30 -3 -40 41 -14 57 -88 160 -115 160 -5 0 -9 4 -9 10 0
5 -11 12 -25 16 -14 3 -25 10 -25 15 0 5 -11 9 -24 9 -14 0 -28 5 -31 10 -3 6
-16 10 -28 10 -12 0 -17 4 -12 8 11 8 13 41 2 58 -3 6 -3 14 1 18 10 11 10
166 -1 159 -5 -3 -4 3 2 14 7 14 7 24 -2 33 -9 10 -9 11 1 6 7 -5 12 -1 12 9
0 10 -5 13 -12 9 -10 -6 -10 -4 -2 7 6 8 10 25 8 37 -3 17 1 25 16 29 11 3 20
8 20 12 0 3 15 7 32 8 18 2 34 7 36 13 2 5 10 10 17 10 7 0 16 7 19 16 3 8 10
12 16 9 5 -3 10 -3 10 2 0 4 14 22 30 40 17 18 30 37 30 42 0 6 4 11 8 11 5 0
9 6 10 13 2 24 8 42 22 64 11 17 18 19 32 12 12 -7 18 -6 18 1 0 6 5 8 11 4
14 -8 129 -11 129 -2 0 4 13 3 30 -2 17 -5 30 -5 30 0 0 5 13 5 30 0 16 -5 30
-5 30 -1 0 14 83 -4 90 -19 13 -24 34 -75 34 -81 3 -21 136 -142 136 -123 0 3
6 1 14 -5 8 -7 31 -13 50 -14 20 -1 36 -5 36 -8 0 -8 33 -5 48 5 7 4 12 2 12
-4 0 -6 5 -8 13 -3 12 8 28 12 59 15 10 1 20 8 22 15 3 7 12 13 21 13 8 0 36
20 62 45 25 25 42 45 37 45 -5 0 -4 4 3 8 6 4 21 28 32 54 16 37 19 63 16 120
-5 92 -6 98 -18 98 -6 0 -8 3 -4 6 3 4 -1 13 -9 21 -8 8 -12 18 -10 21 4 7
-81 94 -99 101 -5 2 -18 6 -27 9 -10 2 -18 8 -18 13 0 5 -13 9 -29 9 -17 0
-33 5 -36 10 -4 7 -12 7 -25 0 -11 -6 -21 -6 -24 -1 -5 7 -41 8 -41 1 0 -1
-13 -4 -30 -6 -16 -3 -35 -9 -41 -15 -6 -5 -14 -6 -17 -2 -4 3 -7 1 -7 -5 0
-6 -9 -13 -19 -17 -19 -6 -96 -73 -96 -84 -1 -3 -11 -26 -24 -51 -13 -25 -23
-46 -22 -47 10 -18 -26 -56 -42 -46 -21 13 -49 14 -41 1 5 -7 3 -8 -7 -3 -7 5
-80 9 -162 9 l-150 1 -2 25 c-5 37 -9 54 -17 60 -3 3 -8 12 -10 20 -2 7 -14
24 -27 37 -13 13 -21 23 -18 23 4 0 -4 10 -16 23 -12 13 -25 22 -30 20 -4 -3
-10 3 -13 11 -3 9 -10 14 -14 11 -5 -3 -15 1 -23 9 -8 8 -17 12 -21 9 -3 -3
-12 -1 -19 5 -8 7 -17 9 -20 5 -14 -13 -38 21 -32 45 4 16 2 21 -6 17 -8 -6
-8 -2 0 12 7 14 7 24 -2 33 -9 10 -9 11 1 6 7 -5 12 -1 12 9 0 10 -5 13 -12 9
-7 -5 -8 -3 -2 7 12 19 13 169 1 162 -5 -3 -4 3 2 14 7 14 7 24 -2 33 -9 10
-9 11 2 5 10 -6 11 -2 6 14 -8 26 24 58 37 38 6 -9 8 -9 8 1 0 6 9 12 20 12
11 0 20 4 20 9 0 5 10 11 23 15 12 3 36 18 53 33 34 32 88 103 78 103 -3 0 -2
6 3 13 6 6 13 24 16 38 l7 26 190 -1 c104 0 190 -4 190 -8 0 -4 6 -7 13 -6 6
2 12 -6 12 -17 0 -11 6 -24 13 -28 6 -4 12 -16 12 -25 0 -9 14 -33 30 -52 16
-19 30 -39 30 -43 0 -5 4 -6 9 -3 4 3 16 -3 25 -13 10 -11 28 -22 42 -25 13
-4 24 -10 24 -15 0 -5 9 -7 20 -4 11 3 20 1 20 -4 0 -15 112 -8 166 10 28 10
61 27 72 38 12 11 22 17 22 13 0 -4 16 13 35 37 19 24 35 50 35 57 0 7 5 10
11 7 6 -4 10 -1 8 6 -3 25 1 40 10 35 14 -9 10 156 -5 185 -7 15 -10 29 -7 33
4 3 1 6 -5 6 -6 0 -13 9 -17 19 -11 37 -118 131 -147 131 -8 0 -19 5 -26 12
-9 9 -12 9 -12 0 0 -7 -5 -12 -11 -12 -5 0 -7 5 -4 11 5 7 -17 10 -69 8 -42
-2 -76 -6 -76 -10 0 -3 -18 -12 -40 -19 -21 -7 -37 -17 -34 -21 3 -5 0 -9 -6
-9 -7 0 -25 -11 -42 -25 -16 -14 -26 -25 -23 -25 4 0 -3 -9 -16 -20 -13 -10
-20 -19 -15 -20 5 0 2 -7 -5 -16 -7 -9 -14 -25 -16 -37 -2 -11 -8 -26 -14 -34
-9 -10 -8 -13 2 -13 11 0 11 -2 -1 -9 -8 -6 -18 -7 -22 -5 -4 3 -8 -1 -8 -8 0
-9 -3 -9 -10 2 -5 8 -10 10 -10 5 0 -7 -22 -9 -60 -5 -33 3 -60 3 -60 0 0 -4
-22 -4 -50 0 -27 4 -50 3 -50 -2 0 -5 -9 -4 -20 2 -11 6 -20 7 -20 3 0 -12
-83 -3 -95 9 -7 8 -5 8 5 3 12 -6 13 -5 3 6 -7 7 -13 23 -13 36 0 13 -4 23
-10 23 -5 0 -10 9 -10 20 0 11 -4 20 -10 20 -5 0 -10 7 -10 15 0 8 -4 15 -8
15 -5 0 -15 11 -22 25 -7 14 -15 23 -18 21 -4 -5 -15 3 -47 32 -8 7 -15 11
-15 7 0 -3 -10 1 -23 10 -13 8 -27 12 -30 8 -4 -3 -7 -2 -7 4 0 6 -35 10 -89
10 -50 0 -88 -4 -85 -8 2 -4 -11 -12 -29 -18 -19 -7 -45 -21 -58 -34 -13 -12
-27 -21 -31 -20 -5 2 -8 -4 -8 -12 0 -8 -4 -15 -8 -15 -13 0 -62 -95 -62 -119
0 -11 -3 -21 -8 -21 -4 0 -7 -22 -7 -50 0 -27 2 -50 5 -50 3 0 6 -10 7 -22 4
-49 101 -188 126 -180 4 1 10 -4 13 -12 3 -8 12 -12 20 -9 8 3 14 0 14 -6 0
-6 9 -11 21 -11 11 0 26 -6 33 -13 14 -14 27 -67 17 -67 -4 0 -4 -27 -1 -60 3
-33 3 -60 0 -60 -3 0 -3 -27 0 -60 3 -33 3 -60 -1 -60 -3 0 -3 -18 1 -40 6
-34 4 -42 -11 -51 -11 -5 -19 -6 -19 -2 0 4 -4 2 -9 -5 -4 -7 -18 -14 -29 -15
-12 -1 -22 -5 -22 -9 0 -4 -5 -8 -11 -8 -7 0 -22 -11 -35 -26 -13 -14 -24 -22
-24 -18 0 5 -13 -10 -28 -32 -36 -49 -76 -154 -60 -154 9 0 9 -3 1 -11 -8 -8
-8 -20 -2 -36 5 -13 5 -22 0 -19 -4 3 -3 -12 3 -34 5 -22 14 -40 19 -40 4 0 5
-4 2 -10 -3 -5 -1 -10 5 -10 6 0 9 -4 6 -9 -7 -11 83 -113 94 -106 4 3 10 -2
14 -10 3 -8 12 -15 21 -15 8 0 15 -5 15 -11 0 -5 5 -7 10 -4 6 4 17 1 25 -5 8
-7 15 -9 15 -6 0 4 7 1 15 -8 16 -15 21 -31 7 -22 -4 2 -5 -25 -2 -60 3 -35 3
-64 0 -64 -3 0 -3 -27 0 -60 3 -33 3 -60 0 -60 -9 0 -5 -95 5 -102 6 -5 5 -8
-3 -8 -7 0 -11 -4 -8 -9 7 -11 -22 -23 -35 -15 -5 3 -9 0 -9 -6 0 -7 -6 -10
-12 -7 -7 2 -21 -5 -30 -15 -9 -11 -18 -18 -21 -16 -17 13 -117 -110 -124
-152 -5 -33 -23 -70 -33 -70 -6 0 -8 6 -4 13 5 7 0 6 -11 -3 -22 -18 -18 -18
-38 -1 -10 8 -17 9 -17 3 0 -11 -31 -9 -52 4 -8 5 -9 2 -5 -10 6 -14 3 -15
-13 -6 -11 6 -20 8 -20 4 0 -3 -7 -1 -15 6 -9 8 -15 9 -15 2 0 -11 -31 -9 -52
4 -8 5 -9 2 -5 -10 6 -14 3 -15 -13 -6 -11 6 -20 8 -20 4 0 -3 -7 -1 -15 6 -9
8 -15 8 -15 2 0 -11 -50 -6 -61 6 -3 4 -15 31 -25 61 -29 84 -118 167 -199
186 -34 8 -50 22 -51 48 -1 15 3 27 9 27 6 0 6 5 -1 13 -13 16 -13 29 1 46 8
10 8 13 1 8 -13 -8 -13 51 0 72 6 9 5 12 -1 8 -13 -8 -11 52 1 72 6 9 5 12 0
8 -6 -3 -10 11 -10 33 0 25 3 37 10 33 6 -4 5 0 -2 9 -11 14 -10 18 7 28 15 8
21 8 21 0 0 -6 7 -4 16 4 8 9 20 17 25 17 20 3 25 5 54 24 40 26 95 85 95 103
0 7 5 10 11 7 6 -4 9 -1 8 6 -2 8 2 24 9 37 7 12 10 27 7 32 -3 6 -2 10 3 10
5 0 9 29 8 65 -1 36 -4 65 -8 65 -5 0 -7 3 -7 8 1 4 0 10 -1 15 -1 4 -3 10 -4
15 -4 17 -36 70 -50 81 -9 7 -13 18 -9 25 3 6 3 8 -1 4 -5 -4 -17 2 -29 13
-11 10 -33 24 -48 31 -15 7 -26 15 -24 18 2 3 -11 7 -28 8 -17 2 -34 7 -38 13
-3 6 -10 11 -15 12 -13 3 -12 59 1 76 7 11 7 13 -1 8 -13 -8 -13 51 0 72 6 9
5 12 -1 8 -13 -8 -11 52 1 72 6 9 5 12 -1 8 -13 -8 -11 52 1 72 6 9 5 12 -2 7
-7 -4 -9 3 -7 21 2 16 4 32 4 36 1 5 5 6 10 2 5 -3 12 -1 16 4 3 5 14 8 25 6
11 -2 20 0 20 4 0 8 38 28 54 29 4 0 28 21 52 46 43 46 75 100 81 140 9 53 9
112 -1 125 -9 12 -8 13 3 6 11 -6 12 -5 5 6 -5 8 -9 16 -9 19 0 3 -11 26 -23
52 -25 50 -88 118 -109 118 -7 0 -13 4 -13 9 0 27 -201 54 -216 29 -3 -4 -11
-8 -17 -8 -7 0 -6 4 3 10 8 5 10 10 4 10 -6 0 -17 -7 -24 -15z m80 -79 c0 17
66 6 123 -19 26 -12 47 -28 47 -35 0 -7 4 -11 9 -8 5 4 15 -7 23 -24 7 -16 16
-30 19 -30 3 0 6 -6 7 -12 1 -21 10 -57 17 -68 3 -6 2 -10 -2 -10 -5 0 -9 -12
-9 -27 -1 -39 -14 -83 -26 -83 -5 0 -7 -4 -4 -9 7 -11 -83 -86 -106 -87 -10
-1 -20 -2 -23 -3 -3 0 -8 -2 -12 -2 -5 -1 -18 -5 -30 -10 -13 -5 -23 -5 -23 0
0 5 -11 9 -24 9 -26 0 -86 23 -86 33 0 4 -9 9 -21 12 -12 3 -18 10 -14 16 3 6
2 11 -3 11 -30 0 -70 149 -51 190 4 8 13 28 20 43 7 16 25 40 38 54 30 30 96
65 105 56 3 -4 6 0 6 8 0 11 2 11 10 -1 5 -8 10 -10 10 -4z m1046 5 c-3 -4 5
-7 17 -6 12 1 33 -4 47 -11 31 -15 97 -74 84 -74 -5 0 -4 -4 2 -8 15 -10 49
-76 34 -67 -9 5 -9 2 -2 -11 5 -11 8 -36 7 -56 -3 -43 -35 -119 -47 -112 -4 3
-8 -1 -8 -8 0 -14 -39 -44 -52 -40 -5 1 -8 -3 -8 -8 0 -5 -7 -10 -15 -10 -8 0
-15 -4 -15 -8 0 -5 -16 -8 -35 -7 -19 0 -35 -3 -35 -7 0 -5 -9 -4 -20 2 -11 6
-20 8 -20 4 0 -3 -6 -1 -13 5 -8 6 -17 8 -21 4 -4 -4 -10 -3 -14 2 -4 6 -20
17 -35 26 -16 9 -29 20 -29 25 -1 5 -9 15 -19 22 -11 7 -19 20 -19 28 0 8 -4
14 -8 14 -5 0 -9 6 -10 13 -8 76 -8 117 0 117 5 0 6 4 3 10 -7 12 18 62 47 93
37 38 88 70 88 55 0 -9 2 -10 8 -2 6 11 26 16 75 21 9 1 15 -2 13 -6z m1004
-6 c0 -5 5 -3 10 5 6 9 10 10 10 3 0 -6 14 -14 30 -18 17 -4 30 -11 30 -16 0
-5 6 -9 13 -9 17 0 80 -87 72 -99 -3 -5 0 -13 6 -16 5 -4 8 -14 5 -22 -3 -8
-2 -12 3 -9 7 5 8 -63 0 -71 -1 -2 -3 -7 -4 -13 -1 -5 -4 -13 -5 -17 -1 -5 -2
-11 -1 -15 0 -5 -4 -8 -10 -8 -5 0 -7 -4 -4 -10 3 -5 1 -10 -5 -10 -6 0 -8 -4
-5 -10 3 -5 -2 -10 -11 -10 -10 0 -14 -3 -11 -7 7 -6 -35 -40 -42 -34 -2 1 -7
-2 -11 -9 -4 -6 -16 -13 -26 -15 -10 -2 -20 -4 -21 -4 -2 -1 -6 -1 -10 -2 -5
-1 -15 -5 -24 -10 -10 -5 -20 -4 -27 3 -9 9 -12 9 -12 0 0 -6 -7 -9 -15 -6 -8
4 -13 9 -10 14 2 4 -7 5 -20 2 -15 -2 -25 0 -25 7 0 6 -6 11 -14 11 -18 0 -97
80 -90 91 3 5 0 9 -7 9 -6 0 -9 8 -6 20 3 11 1 18 -3 15 -5 -3 -9 3 -8 12 0
10 -2 33 -5 50 -3 21 -1 30 6 26 6 -4 8 0 4 10 -3 10 -2 17 4 17 6 0 7 5 4 10
-3 6 1 17 9 26 9 9 14 20 11 25 -4 5 -2 9 4 9 6 0 21 10 35 23 44 40 55 47 81
49 14 1 25 5 25 8 0 3 16 5 35 5 19 0 35 -4 35 -10z m-1940 -1009 c64 -28 120
-95 120 -144 0 -16 4 -21 13 -16 9 6 9 4 -1 -8 -9 -11 -10 -18 -2 -23 6 -3 7
-11 4 -17 -4 -6 -9 -25 -11 -42 -2 -17 -8 -32 -13 -34 -6 -2 -10 -10 -10 -18
0 -8 -5 -14 -12 -14 -6 0 -9 -3 -6 -6 7 -7 -20 -36 -55 -59 -55 -35 -153 -38
-211 -5 -48 26 -106 89 -99 107 3 7 1 13 -4 13 -10 0 -11 2 -16 68 -2 23 1 42
6 42 4 0 6 4 3 8 -8 13 26 74 61 112 18 19 33 30 33 26 0 -5 8 -2 18 6 9 8 27
14 40 13 12 -1 22 2 22 6 0 12 82 1 120 -15z m958 15 c1 0 5 -1 10 -2 24 -4
82 -42 110 -74 32 -36 36 -47 33 -74 -2 -7 1 -11 6 -8 4 3 8 -19 8 -49 1 -30
-2 -54 -7 -54 -4 0 -5 -7 -2 -15 4 -8 1 -15 -7 -15 -7 0 -9 -3 -6 -6 18 -18
-80 -107 -133 -122 -31 -9 -121 -4 -133 7 -8 6 -16 8 -20 5 -3 -3 -28 17 -56
44 -45 44 -57 66 -52 95 0 4 -4 7 -9 7 -5 0 -10 5 -10 11 0 5 5 7 11 3 8 -5 8
-1 0 13 -6 11 -7 23 -4 27 3 3 1 6 -7 6 -9 0 -10 3 -1 13 9 12 18 40 20 70 1
5 5 5 11 2 6 -3 7 1 4 9 -3 9 -1 16 4 16 6 0 14 9 17 20 4 11 11 18 16 15 5
-4 9 -2 9 4 0 13 75 52 84 44 3 -4 6 -2 6 4 0 8 82 11 98 4z m997 -1 c0 -2 9
-4 21 -5 23 -2 84 -44 84 -57 0 -5 6 -6 13 -2 6 4 9 3 4 -1 -4 -5 -1 -15 7
-24 8 -9 16 -23 18 -31 2 -8 6 -17 10 -20 9 -8 16 -110 6 -110 -4 0 -7 -3 -7
-7 1 -5 0 -11 -1 -15 -3 -11 -7 -27 -9 -36 -1 -10 -71 -87 -80 -87 -3 -1 -16
-6 -27 -13 -12 -6 -24 -8 -28 -5 -3 3 -6 2 -6 -4 0 -5 -24 -8 -57 -6 -79 4
-83 5 -83 15 0 4 -6 8 -14 8 -17 0 -86 70 -86 86 0 7 -4 14 -9 16 -8 3 -22 55
-22 83 -1 39 18 103 35 121 6 6 20 22 30 37 11 14 23 24 28 21 4 -3 8 -1 8 5
0 11 38 26 58 23 6 -2 12 1 12 6 0 5 21 7 48 6 26 -1 47 -3 47 -4z m-2035
-991 c0 -4 8 -6 18 -4 11 2 37 -5 59 -15 42 -19 116 -87 108 -100 -3 -5 0 -10
6 -12 5 -2 11 -22 12 -46 1 -23 6 -42 10 -42 4 0 3 -9 -3 -20 -6 -10 -9 -23
-8 -27 4 -14 -13 -53 -23 -53 -5 0 -8 -3 -7 -7 2 -5 -5 -19 -15 -33 -9 -13
-17 -21 -17 -17 0 4 -10 -1 -22 -13 -12 -11 -28 -20 -35 -20 -7 0 -13 -4 -13
-8 0 -4 -12 -9 -27 -10 -16 -1 -40 -4 -56 -6 -15 -2 -30 1 -33 5 -3 5 -16 9
-30 9 -13 0 -24 5 -24 11 0 5 -5 7 -10 4 -6 -3 -10 -1 -10 6 0 7 -3 10 -6 6
-5 -5 -28 16 -62 58 -10 12 -24 45 -28 65 -8 39 -11 90 -5 96 3 3 7 10 7 15 1
5 3 11 4 14 1 3 3 9 4 14 0 5 16 27 34 50 33 41 82 71 121 74 11 1 21 4 21 7
0 4 7 7 15 7 8 0 15 -4 15 -8z m1062 -6 c5 8 9 6 14 -6 3 -9 12 -17 19 -17 24
0 86 -75 99 -120 7 -25 12 -63 9 -85 -2 -22 -5 -46 -5 -52 -1 -7 -5 -13 -10
-13 -5 0 -7 -4 -4 -8 6 -10 -51 -73 -86 -95 -15 -9 -37 -17 -48 -17 -12 0 -19
-4 -16 -8 9 -15 -88 -4 -134 15 -57 25 -129 116 -116 149 3 8 2 12 -3 9 -13
-7 -4 104 9 120 5 6 7 15 3 18 -3 4 -1 7 5 7 7 0 12 7 12 16 0 8 4 13 9 10 4
-3 13 6 20 20 6 14 16 22 21 19 6 -3 10 -2 10 3 0 12 44 31 88 38 21 3 38 7
40 9 2 2 15 -3 30 -11 20 -10 28 -10 34 -1z m971 -2 c40 -3 47 -5 47 -13 0 -4
7 -8 15 -8 8 0 15 -4 15 -9 0 -5 9 -11 21 -14 12 -3 18 -10 14 -16 -3 -6 -2
-11 2 -11 10 0 46 -58 50 -80 8 -38 8 -108 1 -104 -7 4 -10 -18 -7 -43 0 -3
-6 -10 -15 -15 -9 -5 -16 -13 -16 -18 0 -15 -33 -49 -42 -44 -4 3 -8 0 -8 -5
0 -6 -7 -11 -15 -11 -8 0 -15 -5 -15 -11 0 -6 -9 -9 -20 -6 -10 3 -20 1 -22
-5 -5 -13 -39 -17 -66 -7 -15 6 -21 5 -17 -1 3 -6 1 -10 -4 -10 -6 0 -11 5
-11 10 0 6 -3 10 -7 9 -16 -2 -53 14 -53 23 0 5 -4 7 -9 4 -21 -14 -104 111
-94 142 3 6 -1 12 -8 12 -10 0 -10 3 -1 12 8 8 9 15 1 25 -7 7 -7 13 -2 13 5
0 10 12 11 27 3 39 74 133 100 133 7 0 12 4 12 9 0 6 9 8 20 6 11 -2 20 0 20
4 0 4 14 7 30 6 17 -1 30 3 30 8 0 6 5 6 13 0 6 -6 20 -11 30 -12z"/>
</g>
</svg>
